<mxfile host="app.diagrams.net" agent="Mozilla/5.0 (Windows NT 10.0; Win64; x64) AppleWebKit/537.36 (KHTML, like Gecko) Chrome/134.0.0.0 Safari/537.36" version="26.1.1">
  <diagram name="Page-1" id="lcyWkLYafmMB2R4dz9yK">
    <mxGraphModel dx="1034" dy="412" grid="1" gridSize="10" guides="1" tooltips="1" connect="1" arrows="1" fold="1" page="1" pageScale="1" pageWidth="827" pageHeight="1169" math="0" shadow="0">
      <root>
        <mxCell id="0" />
        <mxCell id="1" parent="0" />
        <mxCell id="YZOmJjN1szqIvKfU1QNY-35" value="" style="rounded=0;whiteSpace=wrap;html=1;" parent="1" vertex="1">
          <mxGeometry x="100" y="135" width="530" height="450" as="geometry" />
        </mxCell>
        <mxCell id="YZOmJjN1szqIvKfU1QNY-2" value="" style="rounded=0;whiteSpace=wrap;html=1;" parent="1" vertex="1">
          <mxGeometry x="360" y="295" width="190" height="110" as="geometry" />
        </mxCell>
        <mxCell id="YZOmJjN1szqIvKfU1QNY-27" style="edgeStyle=none;rounded=0;orthogonalLoop=1;jettySize=auto;html=1;entryX=1;entryY=0.5;entryDx=0;entryDy=0;" parent="1" source="YZOmJjN1szqIvKfU1QNY-1" target="YZOmJjN1szqIvKfU1QNY-26" edge="1">
          <mxGeometry relative="1" as="geometry">
            <Array as="points">
              <mxPoint x="330" y="325" />
              <mxPoint x="330" y="429" />
            </Array>
          </mxGeometry>
        </mxCell>
        <mxCell id="YZOmJjN1szqIvKfU1QNY-1" value="&lt;b&gt;&lt;font color=&quot;#3333ff&quot;&gt;CAP Node.js&lt;/font&gt;&lt;/b&gt;" style="rounded=0;whiteSpace=wrap;html=1;strokeColor=#FF3399;strokeWidth=3;" parent="1" vertex="1">
          <mxGeometry x="430" y="305" width="110" height="40" as="geometry" />
        </mxCell>
        <mxCell id="YZOmJjN1szqIvKfU1QNY-5" style="edgeStyle=orthogonalEdgeStyle;rounded=0;orthogonalLoop=1;jettySize=auto;html=1;entryX=0;entryY=0.5;entryDx=0;entryDy=0;" parent="1" source="YZOmJjN1szqIvKfU1QNY-4" target="YZOmJjN1szqIvKfU1QNY-2" edge="1">
          <mxGeometry relative="1" as="geometry" />
        </mxCell>
        <mxCell id="YZOmJjN1szqIvKfU1QNY-11" style="edgeStyle=none;rounded=0;orthogonalLoop=1;jettySize=auto;html=1;entryX=1;entryY=0.5;entryDx=0;entryDy=0;" parent="1" source="YZOmJjN1szqIvKfU1QNY-4" target="YZOmJjN1szqIvKfU1QNY-8" edge="1">
          <mxGeometry relative="1" as="geometry" />
        </mxCell>
        <mxCell id="YZOmJjN1szqIvKfU1QNY-4" value="" style="shape=image;verticalLabelPosition=bottom;verticalAlign=top;imageAspect=0;aspect=fixed;image=data:image/svg+xml,PHN2ZyB4bWxucz0iaHR0cDovL3d3dy53My5vcmcvMjAwMC9zdmciIGlkPSJkZXN0aW5hdGlvbiIgdmlld0JveD0iNC4wMDAwMDE5MDczNDg2MzMgMy45OTk5OTkwNDYzMjU2ODM2IDQ4IDQ3Ljk5OTk5NjE4NTMwMjczNCIgd2lkdGg9IjQ4IiBoZWlnaHQ9IjQ3Ljk5OTk5NjE4NTMwMjczNCI+PGRlZnM+PHN0eWxlPi5jbHMtMXtmaWxsOiMwNzRkOTI7fS5jbHMtMntmaWxsOiMwNTNiNzA7fS5jbHMtM3tmaWxsOiMwYTZlZDE7fTwvc3R5bGU+PC9kZWZzPjx0aXRsZT5kZXN0aW5hdGlvbl9jaXJjbGU8L3RpdGxlPjxwYXRoIGNsYXNzPSJjbHMtMSIgZD0iTTI4LDZBMjIsMjIsMCwxLDEsNiwyOCwyMi4wMjUsMjIuMDI1LDAsMCwxLDI4LDZtMC0yQTI0LDI0LDAsMSwwLDUyLDI4LDI0LDI0LDAsMCwwLDI4LDRaIi8+PHBhdGggY2xhc3M9ImNscy0yIiBkPSJNMjMuNSw0MEgxOS4wNDdhMS41NCwxLjU0LDAsMCwxLTEuMS0uNDIyQTEuNDE5LDEuNDE5LDAsMCwxLDE3LjUsMzguNVYyMmw2LTZIMzRhMS40MjMsMS40MjMsMCwwLDEsMS4wNzguNDQ1QTEuNDg2LDEuNDg2LDAsMCwxLDM1LjUsMTcuNVYxOUgzNFYxNy41SDI1VjIyYTEuNDIxLDEuNDIxLDAsMCwxLS40NDUsMS4wNzhBMS40ODYsMS40ODYsMCwwLDEsMjMuNSwyMy41SDE5djE1aDQuNVoiLz48cGF0aCBjbGFzcz0iY2xzLTMiIGQ9Ik0yNy45NjksMzQuOTMyLDI2LjM1OCwzNC4xbC0xLjAxMi45MjlMMjQuMDU4LDMzLjc2bC44ODEtLjg4Mi0uNjgzLTEuNzYzTDIzLDMxLjFWMjkuMzEyaDEuMjM5bC43MzYtMS43NzUtLjkxNy0uOTIzLDEuMjY1LTEuMjg3Ljk1NS45NTYsMS42OTEtLjctLjAwNy0xLjM3NywxLjg4Mi4wMDl2MS4zNjhsMS42OS43LDEuMDA4LS44ODIsMS4yMTMsMS4zMzktLjg4Mi44ODIuNywxLjY5LDEuMzMzLjA5NHYuODQ0aDEuNXYtLjg0NGExLjU2MywxLjU2MywwLDAsMC0xLjU5My0xLjU5NEgzNC44bC4wNDEtLjAzOWExLjYzNCwxLjYzNCwwLDAsMCwuNDI5LTEuMTA5LDEuNTM2LDEuNTM2LDAsMCwwLS40NTctMS4xMUwzMy42LDI0LjM0MWExLjYzMiwxLjYzMiwwLDAsMC0yLjI0OCwwbC0uMDExLjAxMnYtLjAwOUExLjU2MSwxLjU2MSwwLDAsMCwyOS43NSwyMi43NUgyOC4wNjNhMS41NjEsMS41NjEsMCwwLDAtMS41OTQsMS41OTR2LjAwOWwtLjAxMi0uMDEyYTEuNjMsMS42MywwLDAsMC0yLjI0NywwTDIzLDI1LjU1NGExLjUzNiwxLjUzNiwwLDAsMC0uNDU3LDEuMTFBMS42NTYsMS42NTYsMCwwLDAsMjMsMjcuOGwuMDEyLjAxMUgyM2ExLjU2MywxLjU2MywwLDAsMC0xLjU5NCwxLjU5NHYxLjY4OGExLjU5LDEuNTksMCwwLDAsLjQ0MywxLjEwOUExLjU0MSwxLjU0MSwwLDAsMCwyMywzMi42ODhoLjAwOUwyMywzMi43YTEuNjEsMS42MSwwLDAsMCwwLDIuMjQ3bDEuMjEzLDEuMjEzYTEuNjIyLDEuNjIyLDAsMCwwLDIuMjU5LS4wMTJ2LjAwOWExLjU5LDEuNTksMCwwLDAsLjQ0MiwxLjEwOSwxLjU0NCwxLjU0NCwwLDAsMCwxLjE1Mi40ODVoLjg0M3YtMS41bC0uOTM3LS4wOTRaIi8+PHBhdGggY2xhc3M9ImNscy0zIiBkPSJNMjguOTA2LDI4Ljc1YTEuNDgsMS40OCwwLDAsMSwxLjI3Ljc1SDMxLjhhMi45OTQsMi45OTQsMCwxLDAtMy42NDQsMy42NDNWMzEuNTJhMS40ODEsMS40ODEsMCwwLDEtLjc1LTEuMjdBMS41LDEuNSwwLDAsMSwyOC45MDYsMjguNzVaIi8+PHBhdGggY2xhc3M9ImNscy0zIiBkPSJNMzUuOTM0LDM2LjYzOWwuMTMyLS4xMzJhMi4yNTYsMi4yNTYsMCwwLDAsMC0zLjE4M0wzNC4zOSwzMS42NDhhMi4yNTUsMi4yNTUsMCwwLDAtMy4xODIsMGwtLjEzMy4xMzJMMjkuNDkyLDMwLjJsLS44LjgsMS41ODMsMS41ODMtLjEzMi4xMzJhMi4yNTYsMi4yNTYsMCwwLDAsMCwzLjE4M2wxLjY3NiwxLjY3NmEyLjI1NiwyLjI1NiwwLDAsMCwzLjE4MywwbC4xMzItLjEzMkwzNy43LDQwbC44LS44Wk0zMS4zMjEsMzUuNmwtLjM0OS0uMzQ5YTEuMiwxLjIsMCwwLDEsMC0xLjY5bDEuMDg4LTEuMDg4YTEuMiwxLjIsMCwwLDEsMS42OSwwbC4zNDkuMzQ5Wm0zLjkyMS4wNTUtMS4wODgsMS4wODhhMS4yLDEuMiwwLDAsMS0xLjY5LDBsLS4zNDgtLjM0N0wzNC45LDMzLjYxNmwuMzQ3LjM0OEExLjIsMS4yLDAsMCwxLDM1LjI0MiwzNS42NTRaIi8+PC9zdmc+" parent="1" vertex="1">
          <mxGeometry x="250" y="326" width="48" height="48" as="geometry" />
        </mxCell>
        <mxCell id="YZOmJjN1szqIvKfU1QNY-6" value="Destination" style="text;html=1;align=center;verticalAlign=middle;resizable=0;points=[];autosize=1;strokeColor=none;fillColor=none;" parent="1" vertex="1">
          <mxGeometry x="230" y="370" width="80" height="30" as="geometry" />
        </mxCell>
        <mxCell id="YZOmJjN1szqIvKfU1QNY-13" style="edgeStyle=none;rounded=0;orthogonalLoop=1;jettySize=auto;html=1;" parent="1" source="YZOmJjN1szqIvKfU1QNY-8" edge="1">
          <mxGeometry relative="1" as="geometry">
            <mxPoint x="154" y="255" as="targetPoint" />
          </mxGeometry>
        </mxCell>
        <mxCell id="YZOmJjN1szqIvKfU1QNY-45" style="edgeStyle=none;rounded=0;orthogonalLoop=1;jettySize=auto;html=1;" parent="1" source="YZOmJjN1szqIvKfU1QNY-8" target="YZOmJjN1szqIvKfU1QNY-41" edge="1">
          <mxGeometry relative="1" as="geometry" />
        </mxCell>
        <mxCell id="YZOmJjN1szqIvKfU1QNY-8" value="App Router" style="shape=image;verticalLabelPosition=bottom;verticalAlign=top;imageAspect=0;aspect=fixed;image=data:image/svg+xml,PHN2ZyB4bWxucz0iaHR0cDovL3d3dy53My5vcmcvMjAwMC9zdmciIGlkPSJwcm9jZXNzLWZsZXhpYmlsaXR5LXNlcnZpY2UiIHZpZXdCb3g9IjQuMDAwMDAxOTA3MzQ4NjMzIDMuOTk5OTk5MDQ2MzI1NjgzNiA0OCA0Ny45OTk5OTYxODUzMDI3MzQiIHdpZHRoPSI0OCIgaGVpZ2h0PSI0Ny45OTk5OTYxODUzMDI3MzQiPjxkZWZzPjxzdHlsZT4uY2xzLTF7ZmlsbDojMDc0ZDkyO30uY2xzLTJ7ZmlsbDojMDUzYjcwO30uY2xzLTN7ZmlsbDojMGE2ZWQxO308L3N0eWxlPjwvZGVmcz48cGF0aCBjbGFzcz0iY2xzLTEiIGQ9Ik0yOCw2QTIyLDIyLDAsMSwxLDYsMjgsMjIuMDI1LDIyLjAyNSwwLDAsMSwyOCw2bTAtMkEyNCwyNCwwLDEsMCw1MiwyOCwyNCwyNCwwLDAsMCwyOCw0WiIvPjxwYXRoIGNsYXNzPSJjbHMtMiIgZD0iTTMxLjQ3NCwzNC4zMTFsLTMuNDUtNC40YS44MzYuODM2LDAsMSwwLTEuMywxLjA1czIuNTUsMy4yNSwyLjYsMy4zNWEuNy43LDAsMCwxLDAsLjk1Yy0uMS4xLTIuNiwzLjM1LTIuNiwzLjM1YS44MDcuODA3LDAsMCwwLC4wNSwxLjIuODM0LjgzNCwwLDAsMCwxLjItLjE1bDMuNDUtNC4zNUEuODMuODMsMCwwLDAsMzEuNDc0LDM0LjMxMVoiLz48cGF0aCBjbGFzcz0iY2xzLTIiIGQ9Ik0zNS40MjQsMzQuMzExbC0zLjQ1LTQuNGEuODM2LjgzNiwwLDEsMC0xLjMsMS4wNXMyLjU1LDMuMjUsMi42LDMuMzVhLjcuNywwLDAsMSwwLC45NWMtLjEuMS0yLjYsMy4zNS0yLjYsMy4zNWEuNzczLjc3MywwLDAsMCwuMSwxLjIuODMxLjgzMSwwLDAsMCwxLjItLjE1bDMuNDUtNC4zNUEuNzYuNzYsMCwwLDAsMzUuNDI0LDM0LjMxMVoiLz48cGF0aCBjbGFzcz0iY2xzLTIiIGQ9Ik0zNi4wMjQsMjkuOTExYS44MzYuODM2LDAsMSwwLTEuMywxLjA1czIuNTUsMy4yNSwyLjYsMy4zNWEuNy43LDAsMCwxLDAsLjk1Yy0uMS4xLTIuNiwzLjM1LTIuNiwzLjM1YS43ODkuNzg5LDAsMCwwLC4wNSwxLjE1Ljg2OS44NjksMCwwLDAsMS4yLS4xbDMuNDUtNC4zNWEuOTk0Ljk5NCwwLDAsMCwwLTEuMDVaIi8+PHBhdGggY2xhc3M9ImNscy0zIiBkPSJNMzguNSwyNUgzNy4yNWE4LjQyOCw4LjQyOCwwLDAsMC0uNi0xLjRsLjktLjlBMS40MzksMS40MzksMCwwLDAsMzgsMjEuNjVhMS4zNjIsMS4zNjIsMCwwLDAtLjQ1LTEuMDVsLTIuMS0yLjFhMS41NDMsMS41NDMsMCwwLDAtMi4xLDBsLS45LjlBNy4zODEsNy4zODEsMCwwLDAsMzEsMTguOFYxNy41QTEuNSwxLjUsMCwwLDAsMjkuNSwxNmgtM0ExLjUsMS41LDAsMCwwLDI1LDE3LjV2MS4yYTExLjIsMTEuMiwwLDAsMC0xLjQ1LjZsLS44NS0uODVhMS41NDMsMS41NDMsMCwwLDAtMi4xLDBsLTIuMSwyLjFhMS40MTgsMS40MTgsMCwwLDAtLjUsMS4xLDEuNDM5LDEuNDM5LDAsMCwwLC40NSwxLjA1bC44NS44NUE3LjM4MSw3LjM4MSwwLDAsMCwxOC43LDI1SDE3LjVBMS41LDEuNSwwLDAsMCwxNiwyNi41djNBMS40NzMsMS40NzMsMCwwLDAsMTcuNSwzMWgxLjJhOC45LDguOSwwLDAsMCwuNiwxLjQ1bC0uODUuODVBMS41NTEsMS41NTEsMCwwLDAsMTgsMzQuNGExLjQzOSwxLjQzOSwwLDAsMCwuNDUsMS4wNWwyLjEsMi4xYTEuMzkxLDEuMzkxLDAsMCwwLDEuMDUuNCwxLjYxNCwxLjYxNCwwLDAsMCwxLjA1LS40bC44NS0uODVjLjIuMS40NS4yLjcuM2wuMi4xLjg1LTEuMjVMMjUsMzUuN2EzLjQ0NywzLjQ0NywwLDAsMS0uNzUtLjM1bC0uOTUtLjVMMjEuNjUsMzYuNSwxOS41LDM0LjM1bDEuNjUtMS42NS0uNS0uOTVhNi4xMTcsNi4xMTcsMCwwLDEtLjUtMS4yTDE5LjgsMjkuNUgxNy41di0zaDIuM2wuMzUtMS4wNWExMy4wMjEsMTMuMDIxLDAsMCwxLC41LTEuMjVsLjUtLjk1LTEuNjUtMS42LDIuMTUtMi4xNSwxLjY1LDEuNjUuOTUtLjVhNi4xMTcsNi4xMTcsMCwwLDEsMS4yLS41bDEuMDUtLjM1VjE3LjVoM3YyLjNsMS4wNS4zNWExMi4yMTMsMTIuMjEzLDAsMCwxLDEuMi41bC45NS41LDEuNjUtMS42NSwyLjE1LDIuMTVMMzQuODUsMjMuM2wuNS45NWExMi4yMTMsMTIuMjEzLDAsMCwxLC41LDEuMmwuMzUsMS4wNWgyLjN2MS4xSDQwVjI2LjVBMS41MzgsMS41MzgsMCwwLDAsMzguNSwyNVoiLz48cGF0aCBjbGFzcz0iY2xzLTMiIGQ9Ik0yOCwyMy42YTQuNDYsNC40NiwwLDAsMC00LjQ1LDQuNDUsNC4wOTMsNC4wOTMsMCwwLDAsLjQ1LDEuOWwxLjItMS4wNWEyLjMzNiwyLjMzNiwwLDAsMS0uMTUtLjg1QTIuOTU1LDIuOTU1LDAsMCwxLDI4LDI1LjFhMi45MjQsMi45MjQsMCwwLDEsMi45LDIuNmgxLjVBNC40Miw0LjQyLDAsMCwwLDI4LDIzLjZaIi8+PC9zdmc+" parent="1" vertex="1">
          <mxGeometry x="130" y="326" width="48" height="48" as="geometry" />
        </mxCell>
        <mxCell id="YZOmJjN1szqIvKfU1QNY-12" value="HTML5 App&#xa;Repository" style="shape=image;verticalLabelPosition=bottom;verticalAlign=top;imageAspect=0;aspect=fixed;image=data:image/svg+xml,PHN2ZyB4bWxucz0iaHR0cDovL3d3dy53My5vcmcvMjAwMC9zdmciIGlkPSJmaW9yaS1jbG91ZCIgdmlld0JveD0iNC4wMDAwMDE5MDczNDg2MzMgMy45OTk5OTkwNDYzMjU2ODM2IDQ4IDQ3Ljk5OTk5NjE4NTMwMjczNCIgd2lkdGg9IjQ4IiBoZWlnaHQ9IjQ3Ljk5OTk5NjE4NTMwMjczNCI+PGRlZnM+PHN0eWxlPi5jbHMtMXtmaWxsOiMwNzRkOTI7fS5jbHMtMntmaWxsOiMwYTZlZDE7fS5jbHMtM3tmaWxsOiMwNTNiNzA7fTwvc3R5bGU+PC9kZWZzPjx0aXRsZT5maW9yaS1jbG91ZF9jaXJjbGU8L3RpdGxlPjxwYXRoIGNsYXNzPSJjbHMtMSIgZD0iTTI4LDZBMjIsMjIsMCwxLDEsNiwyOCwyMi4wMjUsMjIuMDI1LDAsMCwxLDI4LDZtMC0yQTI0LDI0LDAsMSwwLDUyLDI4LDI0LDI0LDAsMCwwLDI4LDRaIi8+PHBhdGggY2xhc3M9ImNscy0yIiBkPSJNMzIuMjE2LDMzLjcwOGEzLjk4NSwzLjk4NSwwLDAsMS0zLjk4Ny0zLjk3NGMwLS4wMywwLS4wNiwwLS4wODlhMy45ODEsMy45ODEsMCwwLDEtLjUxMi03LjgsMy43LDMuNywwLDAsMS0uMDUtLjYsMy45ODMsMy45ODMsMCwwLDEsMy45NzMtMy45ODcsMy45MjEsMy45MjEsMCwwLDEsMy4yNDUsMS42OTQsMy43NDEsMy43NDEsMCwwLDEsMS42OTQtLjQxMywzLjk4NCwzLjk4NCwwLDAsMSwzLjk4NiwzLjk3NCwzLjgxNSwzLjgxNSwwLDAsMS0uODU0LDIuNCwzLjkwOCwzLjkwOCwwLDAsMSwxLjI4MSwyLjg3NiwzLjk4NSwzLjk4NSwwLDAsMS0zLjk3MywzLjk4NywzLjU3MywzLjU3MywwLDAsMS0xLjMxOC0uMjU1QTMuODgxLDMuODgxLDAsMCwxLDMyLjIxNiwzMy43MDhabS0xLjc4NC01Ljk4LS40MjMsMS4yODRhMi4yNDYsMi4yNDYsMCwwLDAsMi4yLDMuMDcsMi4zMSwyLjMxLDAsMCwwLDIuMjQyLTEuODk0bC4yNTEtMS4yLDEuMDA3LjdhMi4yNzQsMi4yNzQsMCwwLDAsMy42NTYtMS45LDIuMzM3LDIuMzM3LDAsMCwwLTEuMy0yLjA1OGwtMS4xNTQtLjYsMS4wNC0uNzc2YTIuMzE2LDIuMzE2LDAsMCwwLC45ODItMS44NSwyLjMwNywyLjMwNywwLDAsMC0zLjgzMy0xLjc3NWwtLjg3My43M0wzMy44MjksMjAuNGEyLjMyNywyLjMyNywwLDAsMC0yLjE4NC0xLjUyNSwyLjM1OCwyLjM1OCwwLDAsMC0yLjM1MSwyLjM1OSwyLjMxMywyLjMxMywwLDAsMCwuMjI0Ljk2NGwuNTQ4LDEuMi0xLjQ0My0uMDU2QTIuMzU5LDIuMzU5LDAsMCwwLDI2LjM2NiwyNS43YTIuMjU5LDIuMjU5LDAsMCwwLDIuMzY0LDIuMzUzQTEwLjY0NiwxMC42NDYsMCwwLDAsMzAuNDMyLDI3LjcyOFoiLz48cGF0aCBjbGFzcz0iY2xzLTMiIGQ9Ik0zOS4wNDQsMzIuNTg2YTQuMDQ5LDQuMDQ5LDAsMCwxLTMuNzM5LDIuNTM4SDIwLjcyNWE0LjA2Miw0LjA2MiwwLDAsMS0zLjkxMS0yLjcwOCwzLjkyNiwzLjkyNiwwLDAsMSwyLjUyNy00Ljk2NWwxLjIzNS0uNDE1LS4xNTYtLjgxM2E0LjE1OCw0LjE1OCwwLDAsMS0uMDY3LTEuMTI0LDUuNzEsNS43MSwwLDAsMSwxLjE4Ni0zLjE1N0EzLjk5MywzLjk5MywwLDAsMSwyNSwyMC40MTJhNC4xMDYsNC4xMDYsMCwwLDEsMS41LjMyNiw1LjE5Myw1LjE5MywwLDAsMSwuNDA1LTEuNiw2LjkzOCw2LjkzOCwwLDAsMC0xLjk0Mi0uMjY2Yy02LjcyMiwwLTYuMTMxLDcuMDM2LTYuMTMxLDcuMDM2YTUuNTU3LDUuNTU3LDAsMCwwLDEuNzMsMTAuODQySDM1LjMwNWE1LjY4NSw1LjY4NSwwLDAsMCw1LjY4Mi01LjYzN0E1LjIsNS4yLDAsMCwxLDM5LjA0NCwzMi41ODZaIi8+PC9zdmc+" parent="1" vertex="1">
          <mxGeometry x="130" y="175" width="48" height="48" as="geometry" />
        </mxCell>
        <mxCell id="YZOmJjN1szqIvKfU1QNY-15" value="Auth &amp; Trust &#xa;Management" style="shape=image;verticalLabelPosition=bottom;verticalAlign=top;imageAspect=0;aspect=fixed;image=data:image/svg+xml,PHN2ZyB4bWxucz0iaHR0cDovL3d3dy53My5vcmcvMjAwMC9zdmciIGlkPSJhdXRob3JpemF0aW9uLW1hbmFnZW1lbnQiIHZpZXdCb3g9IjQuMDAwMDAxOTA3MzQ4NjMzIDQuMDE3OTk5NjQ5MDQ3ODUyIDQ4IDQ4IiB3aWR0aD0iNDgiIGhlaWdodD0iNDgiPjxkZWZzPjxzdHlsZT4uY2xzLTF7ZmlsbDojMDc0ZDkyO30uY2xzLTJ7ZmlsbDojMDUzYjcwO30uY2xzLTN7ZmlsbDojMGE2ZWQxO308L3N0eWxlPjwvZGVmcz48dGl0bGU+YXV0aG9yaXphdGlvbi1tYW5hZ2VtZW50X2NpcmNsZTwvdGl0bGU+PHBhdGggY2xhc3M9ImNscy0xIiBkPSJNMjgsNi4wMThhMjIsMjIsMCwxLDEtMjIsMjIsMjIuMDI1LDIyLjAyNSwwLDAsMSwyMi0yMm0wLTJhMjQsMjQsMCwxLDAsMjQsMjQsMjQsMjQsMCwwLDAtMjQtMjRaIi8+PHBhdGggY2xhc3M9ImNscy0yIiBkPSJNMzkuMTksMjAuNDQ2YTEuMywxLjMsMCwwLDAtLjQ5Mi0uNDc2SDM4Ljd2LTEuOWEyLjcsMi43LDAsMCwwLS4yNjQtMS4xODUsMy4wNSwzLjA1LDAsMCwwLS43My0uOTYyLDMuNjQ0LDMuNjQ0LDAsMCwwLTEuMDc5LS42NTYsMy41MzcsMy41MzcsMCwwLDAtMS4zMTItLjI0NCwzLjYxNCwzLjYxNCwwLDAsMC0xLjMyMy4yNDQsMy40NTEsMy40NTEsMCwwLDAtMS4wNzkuNjU2LDMuMTA3LDMuMTA3LDAsMCwwLS43MTkuOTYyLDIuNjkyLDIuNjkyLDAsMCwwLS4yNjUsMS4xODVsLS4wMjEsMS45LS4wMDUsMGExLjMyMywxLjMyMywwLDAsMC0uNjU2LDEuMTYzVjI0LjVBMS4zMzcsMS4zMzcsMCwwLDAsMzIuNiwyNS44NTJoNS40MTdhMS4zMiwxLjMyLDAsMCwwLC45NTItLjM5MiwxLjI5MSwxLjI5MSwwLDAsMCwuNC0uOTYyVjIxLjEzM0ExLjI2OSwxLjI2OSwwLDAsMCwzOS4xOSwyMC40NDZabS02LjMxLTIuMzkxYTIuMTc0LDIuMTc0LDAsMCwxLC44MTMtMS43MywyLjY4NywyLjY4NywwLDAsMSwzLjI1LjEwOCwxLjk3MSwxLjk3MSwwLDAsMSwuODEyLDEuNjIydjEuN2gtNC45Wm0yLjk3NSw0LjQ1N1YyNC4xYS40NTEuNDUxLDAsMSwxLS45LDBWMjIuNTEyYS44MzMuODMzLDAsMCwxLS4zNTUtLjY4OC44MDYuODA2LDAsMCwxLDEuNjExLDBBLjgzMy44MzMsMCwwLDEsMzUuODU1LDIyLjUxMloiLz48cGF0aCBjbGFzcz0iY2xzLTMiIGQ9Ik0zMC44NjksMzQuMjU4YTQuODY0LDQuODY0LDAsMCwwLTIuNjA5LTIuNjA5LDQuNzgyLDQuNzgyLDAsMCwwLTEuODg1LS4zODFIMjEuNWE0LjczNiw0LjczNiwwLDAsMC0xLjkuMzgxQTQuOTUsNC45NSwwLDAsMCwxOC4wNTMsMzIuN2E0Ljg4Niw0Ljg4NiwwLDAsMC0xLjA0NywxLjU2MSw0Ljc2NCw0Ljc2NCwwLDAsMC0uMzgxLDEuODg1djQuODc1SDMxLjI1VjM2LjE0M0E0Ljc2NCw0Ljc2NCwwLDAsMCwzMC44NjksMzQuMjU4Wm0tMS4yNDQsNS4xMzVIMTguMjV2LTMuMjVhMy4xMjgsMy4xMjgsMCwwLDEsLjI1MS0xLjI0OSwzLjI0NiwzLjI0NiwwLDAsMSwuNy0xLjA0OCwzLjMxMywzLjMxMywwLDAsMSwxLjA0MS0uNzA2LDMuMDkyLDMuMDkyLDAsMCwxLDEuMjU3LS4yNDdoNC44NzVhMy4xMzcsMy4xMzcsMCwwLDEsMS4yNDguMjUxLDMuMjM3LDMuMjM3LDAsMCwxLDEuNzUsMS43NDksMy4xMjcsMy4xMjcsMCwwLDEsLjI1MiwxLjI1WiIvPjxwYXRoIGNsYXNzPSJjbHMtMyIgZD0iTTI3LjM4NCwyOS44NEE0Ljk1Nyw0Ljk1NywwLDAsMCwyOC40MzIsMjguM2E0LjkxNSw0LjkxNSwwLDAsMCwwLTMuNzlBNC44NzMsNC44NzMsMCwwLDAsMjUuODIzLDIxLjlhNC45LDQuOSwwLDAsMC0zLjc5LDAsNC45NTcsNC45NTcsMCwwLDAtMS41NDIsMS4wNDgsNC44ODgsNC44ODgsMCwwLDAtMS4wNDgsMS41NjEsNC45LDQuOSwwLDAsMCwwLDMuNzksNC45NzYsNC45NzYsMCwwLDAsMi41OSwyLjU5LDQuOTE1LDQuOTE1LDAsMCwwLDMuNzksMEE0Ljg4OCw0Ljg4OCwwLDAsMCwyNy4zODQsMjkuODRabS0zLjQ0Ni0uMkEzLjA5MywzLjA5MywwLDAsMSwyMi42OCwyOS40YTMuMzQ2LDMuMzQ2LDAsMCwxLTEuNzQ3LTEuNzQ4LDMuMDkzLDMuMDkzLDAsMCwxLS4yNDUtMS4yNTYsMy4xMjgsMy4xMjgsMCwwLDEsLjI1MS0xLjI0OSwzLjI0NiwzLjI0NiwwLDAsMSwuNy0xLjA0OCwzLjMsMy4zLDAsMCwxLDEuMDQtLjcwNiwzLjA5NCwzLjA5NCwwLDAsMSwxLjI1OC0uMjQ3LDMuMTQ0LDMuMTQ0LDAsMCwxLDEuMjQ4LjI1MSwzLjI0NiwzLjI0NiwwLDAsMSwxLjc1LDEuNzQ5LDMuMTQ1LDMuMTQ1LDAsMCwxLC4yNTIsMS4yNSwzLjA4OSwzLjA4OSwwLDAsMS0uMjQ3LDEuMjU3LDMuMywzLjMsMCwwLDEtLjcwNiwxLjA0MSwzLjI0LDMuMjQsMCwwLDEtMS4wNDkuN0EzLjEyNCwzLjEyNCwwLDAsMSwyMy45MzgsMjkuNjQzWiIvPjwvc3ZnPg==" parent="1" vertex="1">
          <mxGeometry x="202" y="257" width="48" height="48" as="geometry" />
        </mxCell>
        <mxCell id="YZOmJjN1szqIvKfU1QNY-17" value="" style="endArrow=none;dashed=1;html=1;rounded=0;" parent="1" edge="1">
          <mxGeometry width="50" height="50" relative="1" as="geometry">
            <mxPoint x="170" y="325" as="sourcePoint" />
            <mxPoint x="170" y="275" as="targetPoint" />
            <Array as="points">
              <mxPoint x="170" y="285" />
            </Array>
          </mxGeometry>
        </mxCell>
        <mxCell id="YZOmJjN1szqIvKfU1QNY-19" value="" style="endArrow=none;dashed=1;html=1;rounded=0;" parent="1" edge="1">
          <mxGeometry width="50" height="50" relative="1" as="geometry">
            <mxPoint x="170" y="275" as="sourcePoint" />
            <mxPoint x="200" y="275" as="targetPoint" />
          </mxGeometry>
        </mxCell>
        <mxCell id="YZOmJjN1szqIvKfU1QNY-20" value="" style="endArrow=none;dashed=1;html=1;rounded=0;" parent="1" edge="1">
          <mxGeometry width="50" height="50" relative="1" as="geometry">
            <mxPoint x="250" y="275" as="sourcePoint" />
            <mxPoint x="320" y="275" as="targetPoint" />
          </mxGeometry>
        </mxCell>
        <mxCell id="YZOmJjN1szqIvKfU1QNY-21" value="" style="endArrow=none;dashed=1;html=1;rounded=0;" parent="1" edge="1">
          <mxGeometry width="50" height="50" relative="1" as="geometry">
            <mxPoint x="320" y="275" as="sourcePoint" />
            <mxPoint x="320" y="335" as="targetPoint" />
          </mxGeometry>
        </mxCell>
        <mxCell id="YZOmJjN1szqIvKfU1QNY-23" value="" style="endArrow=none;dashed=1;html=1;rounded=0;entryX=-0.024;entryY=0.359;entryDx=0;entryDy=0;entryPerimeter=0;" parent="1" target="YZOmJjN1szqIvKfU1QNY-2" edge="1">
          <mxGeometry width="50" height="50" relative="1" as="geometry">
            <mxPoint x="320" y="335" as="sourcePoint" />
            <mxPoint x="370" y="285" as="targetPoint" />
          </mxGeometry>
        </mxCell>
        <mxCell id="YZOmJjN1szqIvKfU1QNY-25" style="edgeStyle=none;rounded=0;orthogonalLoop=1;jettySize=auto;html=1;" parent="1" source="YZOmJjN1szqIvKfU1QNY-24" edge="1">
          <mxGeometry relative="1" as="geometry">
            <mxPoint x="180" y="193" as="targetPoint" />
          </mxGeometry>
        </mxCell>
        <mxCell id="YZOmJjN1szqIvKfU1QNY-24" value="SAP UI5 Component" style="rounded=0;whiteSpace=wrap;html=1;" parent="1" vertex="1">
          <mxGeometry x="214" y="163" width="120" height="60" as="geometry" />
        </mxCell>
        <mxCell id="YZOmJjN1szqIvKfU1QNY-29" style="edgeStyle=none;rounded=0;orthogonalLoop=1;jettySize=auto;html=1;" parent="1" source="YZOmJjN1szqIvKfU1QNY-26" edge="1">
          <mxGeometry relative="1" as="geometry">
            <mxPoint x="274" y="495" as="targetPoint" />
          </mxGeometry>
        </mxCell>
        <mxCell id="YZOmJjN1szqIvKfU1QNY-26" value="Service Manager" style="shape=image;verticalLabelPosition=bottom;verticalAlign=top;imageAspect=0;aspect=fixed;image=data:image/svg+xml,PHN2ZyB4bWxucz0iaHR0cDovL3d3dy53My5vcmcvMjAwMC9zdmciIGlkPSJMYXllcl8yMjkiIGRhdGEtbmFtZT0iTGF5ZXIgMjI5IiB2aWV3Qm94PSI0LjAwMDAwMTkwNzM0ODYzMyAzLjk5OTk5OTA0NjMyNTY4MzYgNDggNDcuOTk5OTk2MTg1MzAyNzM0IiB3aWR0aD0iNDgiIGhlaWdodD0iNDcuOTk5OTk2MTg1MzAyNzM0Ij48ZGVmcz48c3R5bGU+LmNscy0xe2ZpbGw6IzA3NGQ5Mjt9LmNscy0ye2ZpbGw6IzBhNmVkMTt9LmNscy0ze2ZpbGw6IzA1M2I3MDt9PC9zdHlsZT48L2RlZnM+PHBhdGggY2xhc3M9ImNscy0xIiBkPSJNMjgsNkEyMiwyMiwwLDEsMSw2LDI4LDIyLjAyNSwyMi4wMjUsMCwwLDEsMjgsNm0wLTJBMjQsMjQsMCwxLDAsNTIsMjgsMjQsMjQsMCwwLDAsMjgsNFoiLz48cGF0aCBjbGFzcz0iY2xzLTIiIGQ9Ik0yOCwxNS43NWExLjc1LDEuNzUsMCwxLDEtMS43NSwxLjc1QTEuNzUxLDEuNzUxLDAsMCwxLDI4LDE1Ljc1TTI4LDE0YTMuNSwzLjUsMCwxLDAsMy41LDMuNUEzLjUsMy41LDAsMCwwLDI4LDE0WiIvPjxwYXRoIGNsYXNzPSJjbHMtMiIgZD0iTTI4LDM2Ljc1YTEuNzUsMS43NSwwLDEsMS0xLjc1LDEuNzVBMS43NTEsMS43NTEsMCwwLDEsMjgsMzYuNzVNMjgsMzVhMy41LDMuNSwwLDEsMCwzLjUsMy41QTMuNSwzLjUsMCwwLDAsMjgsMzVaIi8+PHBhdGggY2xhc3M9ImNscy0yIiBkPSJNMTkuMjUsMjYuMjV2My41aC0zLjV2LTMuNWgzLjVNMjEsMjQuNUgxNHY3aDd2LTdaIi8+PHBhdGggY2xhc3M9ImNscy0yIiBkPSJNNDAuMjUsMjYuMjV2My41aC0zLjV2LTMuNWgzLjVNNDIsMjQuNUgzNXY3aDd2LTdaIi8+PHBhdGggY2xhc3M9ImNscy0zIiBkPSJNMzMuMjUsMjYuOTA2YTQuMTYsNC4xNiwwLDAsMS00LjE1Ni00LjE1Ni42NTYuNjU2LDAsMCwxLDEuMzEyLDAsMi44NDcsMi44NDcsMCwwLDAsMi44NDQsMi44NDQuNjU2LjY1NiwwLDAsMSwwLDEuMzEyWiIvPjxwYXRoIGNsYXNzPSJjbHMtMyIgZD0iTTIyLjc1LDI2LjkwNmEuNjU2LjY1NiwwLDAsMSwwLTEuMzEyLDIuODQ3LDIuODQ3LDAsMCwwLDIuODQ0LTIuODQ0LjY1Ni42NTYsMCwwLDEsMS4zMTIsMEE0LjE2LDQuMTYsMCwwLDEsMjIuNzUsMjYuOTA2WiIvPjxwYXRoIGNsYXNzPSJjbHMtMyIgZD0iTTI2LjI1LDMzLjkwNmEuNjU2LjY1NiwwLDAsMS0uNjU2LS42NTYsMi44NDcsMi44NDcsMCwwLDAtMi44NDQtMi44NDQuNjU2LjY1NiwwLDAsMSwwLTEuMzEyLDQuMTYsNC4xNiwwLDAsMSw0LjE1Niw0LjE1NkEuNjU2LjY1NiwwLDAsMSwyNi4yNSwzMy45MDZaIi8+PHBhdGggY2xhc3M9ImNscy0zIiBkPSJNMjkuNzUsMzMuOTA2YS42NTYuNjU2LDAsMCwxLS42NTYtLjY1Niw0LjE2LDQuMTYsMCwwLDEsNC4xNTYtNC4xNTYuNjU2LjY1NiwwLDAsMSwwLDEuMzEyLDIuODQ3LDIuODQ3LDAsMCwwLTIuODQ0LDIuODQ0QS42NTYuNjU2LDAsMCwxLDI5Ljc1LDMzLjkwNloiLz48L3N2Zz4=" parent="1" vertex="1">
          <mxGeometry x="250" y="405" width="48" height="48" as="geometry" />
        </mxCell>
        <mxCell id="YZOmJjN1szqIvKfU1QNY-30" value="HANA Cloud" style="shape=image;verticalLabelPosition=bottom;verticalAlign=top;imageAspect=0;aspect=fixed;image=data:image/svg+xml,PHN2ZyB4bWxucz0iaHR0cDovL3d3dy53My5vcmcvMjAwMC9zdmciIGlkPSJoYW5hIiB2aWV3Qm94PSI0LjAwMDAwMTkwNzM0ODYzMyAzLjk5OTk5OTA0NjMyNTY4MzYgNDggNDcuOTk5OTk2MTg1MzAyNzM0IiB3aWR0aD0iNDgiIGhlaWdodD0iNDcuOTk5OTk2MTg1MzAyNzM0Ij48ZGVmcz48c3R5bGU+LmNscy0xe2ZpbGw6IzBhNmVkMTt9LmNscy0ye2ZpbGw6IzA1M2I3MDt9LmNscy0ze2ZpbGw6IzA3NGQ5Mjt9PC9zdHlsZT48L2RlZnM+PHRpdGxlPmhhbmFfY2lyY2xlPC90aXRsZT48cGF0aCBjbGFzcz0iY2xzLTEiIGQ9Ik00MC40MTcsMjQuNjk0YTQuMjI2LDQuMjI2LDAsMCwwLTEuNTI0LTEuMDYyLDEzLjA3NCwxMy4wNzQsMCwwLDAtNS4xNDQtLjg4MiwxMy4wNywxMy4wNywwLDAsMC01LjE0NC44ODIsNC4yMDksNC4yMDksMCwwLDAtMS41MjQsMS4wNjIsMi4yLDIuMiwwLDAsMC0uNTgzLDEuNDdWMzguNTQ3YTIuMTIzLDIuMTIzLDAsMCwwLC41ODMsMS40NjdBNC4xMzgsNC4xMzgsMCwwLDAsMjguNiw0MS4wNzYsMTIuMzQ1LDEyLjM0NSwwLDAsMCwzMy43NDksNDJhMTMuMDc0LDEzLjA3NCwwLDAsMCw1LjE0NC0uODgyLDQuMjI2LDQuMjI2LDAsMCwwLDEuNTI0LTEuMDYyQTIuMjg5LDIuMjg5LDAsMCwwLDQxLDM4LjU4NlYyNi4xNjRBMi4yLDIuMiwwLDAsMCw0MC40MTcsMjQuNjk0Wk0zNS4zOCw0MC4zNTJjLS41MjIuMDQ5LTEuMDYxLjA4My0xLjYzMS4wODNhMTYuNzg3LDE2Ljc4NywwLDAsMS0xLjk4Ny0uMTIyVjI5LjVhMTkuMjI4LDE5LjIyOCwwLDAsMCwxLjk4Ny4xYy41NzEsMCwxLjExMS0uMDMsMS42MzEtLjA3NFptNC4xOC0xLjc2NmMwLC40MDgtLjUzNC44NTEtMS40MzEsMS4xODdhOC40NDIsOC40NDIsMCwwLDEtMS4zLjM2M1YyOS4zMjNhNy45NDcsNy45NDcsMCwwLDAsMi43MzEtLjk1OVpNMzguMTI5LDI3LjQwOGExMi41ODMsMTIuNTgzLDAsMCwxLTQuMzguNjYzLDEyLjU0OCwxMi41NDgsMCwwLDEtNC4zNzctLjY2M2MtLjg4OC0uMzc5LTEuNC0uODI2LTEuNC0xLjIyNnYtLjAxOGMwLS43NTUsMi4wNTYtMS44NSw1Ljc3NC0xLjg1LDMuNzQzLDAsNS44MTEsMS4wOTUsNS44MTEsMS44N0MzOS41NiwyNi41ODcsMzkuMDM4LDI3LjAzNCwzOC4xMjksMjcuNDA4WiIvPjxwYXRoIGNsYXNzPSJjbHMtMiIgZD0iTTI0Ljg0LDI3Ljk5MkgxNy45MDZhMy4xNDMsMy4xNDMsMCwwLDEtLjk3Ny02LjEzNGwxLjM0Ni0uNDQzLS4xNTMtMS40MDhBNC43MzMsNC43MzMsMCwwLDEsMTksMTYuOTI0YTMuOCwzLjgsMCwwLDEsMi44MTktMS4xNzNBMy41MzQsMy41MzQsMCwwLDEsMjUuMjM1LDE4LjFMMjYsMjAuMDIzbDEuNzY3LTEuMDY2YTIuMjg3LDIuMjg3LDAsMCwxLDEuMTkyLS4zNDUsMi4zMjYsMi4zMjYsMCwwLDEsMi4yODMsMS45bC4wOTMuNDkzaDEuNzQ5Yy0uMDI3LS4yNTYtLjA2My0uNTI4LS4xMjItLjgxN2E0LjA0OSw0LjA0OSwwLDAsMC02LjEtMi43MjVBNS41MTQsNS41MTQsMCwwLDAsMjEuNzgyLDE0Yy01Ljk0NS4xNDEtNS40LDYuMi01LjQsNi4yYTQuODkzLDQuODkzLDAsMCwwLDEuNTI0LDkuNTQ3SDI0Ljg0WiIvPjxwYXRoIGNsYXNzPSJjbHMtMyIgZD0iTTI4LDZBMjIsMjIsMCwxLDEsNiwyOCwyMi4wMjUsMjIuMDI1LDAsMCwxLDI4LDZtMC0yQTI0LDI0LDAsMSwwLDUyLDI4LDI0LDI0LDAsMCwwLDI4LDRaIi8+PC9zdmc+" parent="1" vertex="1">
          <mxGeometry x="250" y="495" width="48" height="48" as="geometry" />
        </mxCell>
        <mxCell id="YZOmJjN1szqIvKfU1QNY-32" value="SAP Process&#xa;Automation" style="shape=image;verticalLabelPosition=bottom;verticalAlign=top;imageAspect=0;aspect=fixed;image=data:image/svg+xml,PHN2ZyB4bWxucz0iaHR0cDovL3d3dy53My5vcmcvMjAwMC9zdmciIGlkPSJzYWFzLXByb3Zpc2lvbmluZyIgdmlld0JveD0iNC4wMDAwMDE5MDczNDg2MzMgMy45OTk5OTkwNDYzMjU2ODM2IDQ4IDQ3Ljk5OTk5NjE4NTMwMjczNCIgd2lkdGg9IjQ4IiBoZWlnaHQ9IjQ3Ljk5OTk5NjE4NTMwMjczNCI+PGRlZnM+PHN0eWxlPi5jbHMtMXtmaWxsOiMwNzRkOTI7fS5jbHMtMntmaWxsOiMwNTNiNzA7fS5jbHMtM3tmaWxsOiMwYTZlZDE7fTwvc3R5bGU+PC9kZWZzPjxwYXRoIGNsYXNzPSJjbHMtMSIgZD0iTTI4LDZBMjIsMjIsMCwxLDEsNiwyOCwyMi4wMjUsMjIuMDI1LDAsMCwxLDI4LDZtMC0yQTI0LDI0LDAsMSwwLDUyLDI4LDI0LDI0LDAsMCwwLDI4LDRaIi8+PHBhdGggY2xhc3M9ImNscy0yIiBkPSJNMzcuNjU5LDIyLjAxOGE0LjYsNC42LDAsMCwwLTYuOTIxLTMuMDkzQTUuODE5LDUuODE5LDAsMCwwLDI0Ljk3NCwxNWMtNi43MiwwLTYuMTMsNy4wMzItNi4xMyw3LjAzMkE1LjU1LDUuNTUsMCwwLDAsMTUuMDA1LDI3LjNhNS42MTIsNS42MTIsMCwwLDAsMy4yNDksNS4wODR2LTEuOWEzLjk2OSwzLjk2OSwwLDAsMS0xLjQyOS0xLjk0NywzLjkyNCwzLjkyNCwwLDAsMSwyLjUyNy00Ljk2MmwxLjIzMy0uNDE1LS4xNTUtLjgxM2E0LjE0OCw0LjE0OCwwLDAsMS0uMDY3LTEuMTIzLDUuNzEsNS43MSwwLDAsMSwxLjE4NS0zLjE1NSw0LDQsMCwwLDEsMy40NjMtMS41MjksNS4zNzksNS4zNzksMCwwLDEsNC40NTEsMy4wNTFsLjUwNiwxLjQ3OSwxLjMxMi0uNzEzYTQuMTE1LDQuMTE1LDAsMCwxLDEuODM2LS40ODQsMywzLDAsMCwxLDIuOTQ3LDIuNDQ2bC4xNTYuODI4LjYwOS4yNzhhNC4wNTgsNC4wNTgsMCwwLDEsLjkxOCw3LjAxNXYxLjlBNS44Myw1LjgzLDAsMCwwLDQxLDI3LjE4Miw1LjY3Nyw1LjY3NywwLDAsMCwzNy42NTksMjIuMDE4WiIvPjxwYXRoIGNsYXNzPSJjbHMtMyIgZD0iTTM0Ljg3MywyNC43NTdIMjEuMTI3YTIuMDYxLDIuMDYxLDAsMCwwLTIuMDYxLDIuMDYxVjM4LjkzOUEyLjA2MSwyLjA2MSwwLDAsMCwyMS4xMjcsNDFIMzQuODczYTIuMDYxLDIuMDYxLDAsMCwwLDIuMDYxLTIuMDYxVjI2LjgxOEEyLjA2MSwyLjA2MSwwLDAsMCwzNC44NzMsMjQuNzU3Wm0uNDM2LDE0LjE4MmEuNDM3LjQzNywwLDAsMS0uNDM2LjQzN0gyMS4xMjdhLjQzNy40MzcsMCwwLDEtLjQzNi0uNDM3VjMxLjI1NEgzNS4zMDlabTAtOS4zMDlIMjAuNjkxVjI2LjgxOGEuNDM3LjQzNywwLDAsMSwuNDM2LS40MzdIMzQuODczYS40MzcuNDM3LDAsMCwxLC40MzYuNDM3WiIvPjxwYXRoIGNsYXNzPSJjbHMtMyIgZD0iTTI4LDMyLjA1NUgyMS41VjM3Ljc0SDI4Wm0tMS42MjQsNC4wNjFIMjMuMTI3VjMzLjY4aDMuMjQ5WiIvPjxwYXRoIGNsYXNzPSJjbHMtMyIgZD0iTTMzLjY4NSwyNy4xOTNIMzIuMDYxYS44MTMuODEzLDAsMCwwLDAsMS42MjVoMS42MjRhLjgxMy44MTMsMCwwLDAsMC0xLjYyNVoiLz48cmVjdCBjbGFzcz0iY2xzLTMiIHg9IjI5LjYyNCIgeT0iMzIuMDY2IiB3aWR0aD0iNC44NzMiIGhlaWdodD0iMC44MTIiLz48cmVjdCBjbGFzcz0iY2xzLTMiIHg9IjI5LjYyNCIgeT0iMzMuNjgiIHdpZHRoPSI0Ljg3MyIgaGVpZ2h0PSIwLjgxMiIvPjxyZWN0IGNsYXNzPSJjbHMtMyIgeD0iMjkuNjI0IiB5PSIzNS4yOTMiIHdpZHRoPSI0Ljg3MyIgaGVpZ2h0PSIwLjgxMiIvPjwvc3ZnPg==" parent="1" vertex="1">
          <mxGeometry x="420" y="495" width="48" height="48" as="geometry" />
        </mxCell>
        <mxCell id="YZOmJjN1szqIvKfU1QNY-33" value="" style="endArrow=classic;html=1;rounded=0;entryX=0.5;entryY=0;entryDx=0;entryDy=0;exitX=0.447;exitY=1.016;exitDx=0;exitDy=0;exitPerimeter=0;" parent="1" source="YZOmJjN1szqIvKfU1QNY-2" target="YZOmJjN1szqIvKfU1QNY-32" edge="1">
          <mxGeometry width="50" height="50" relative="1" as="geometry">
            <mxPoint x="434" y="405" as="sourcePoint" />
            <mxPoint x="490" y="305" as="targetPoint" />
            <Array as="points" />
          </mxGeometry>
        </mxCell>
        <mxCell id="YZOmJjN1szqIvKfU1QNY-34" value="&lt;b&gt;SAP Build Code&lt;/b&gt;" style="text;html=1;strokeColor=none;fillColor=none;align=center;verticalAlign=middle;whiteSpace=wrap;rounded=0;" parent="1" vertex="1">
          <mxGeometry x="379" y="355" width="110" height="30" as="geometry" />
        </mxCell>
        <mxCell id="YZOmJjN1szqIvKfU1QNY-36" value="&lt;b&gt;&lt;font color=&quot;#000066&quot; style=&quot;font-size: 15px;&quot;&gt;SAP Busniess Technology Platform&amp;nbsp;&lt;/font&gt;&lt;/b&gt;" style="text;html=1;strokeColor=none;fillColor=none;align=center;verticalAlign=middle;whiteSpace=wrap;rounded=0;" parent="1" vertex="1">
          <mxGeometry x="430" y="145" width="180" height="30" as="geometry" />
        </mxCell>
        <mxCell id="YZOmJjN1szqIvKfU1QNY-38" style="edgeStyle=none;rounded=0;orthogonalLoop=1;jettySize=auto;html=1;" parent="1" source="YZOmJjN1szqIvKfU1QNY-37" edge="1">
          <mxGeometry relative="1" as="geometry">
            <mxPoint x="600" y="336" as="targetPoint" />
          </mxGeometry>
        </mxCell>
        <mxCell id="YZOmJjN1szqIvKfU1QNY-37" value="" style="rounded=0;whiteSpace=wrap;html=1;" parent="1" vertex="1">
          <mxGeometry x="700" y="257" width="140" height="158" as="geometry" />
        </mxCell>
        <mxCell id="YZOmJjN1szqIvKfU1QNY-39" value="&lt;b&gt;External Service&lt;/b&gt;" style="text;html=1;strokeColor=none;fillColor=none;align=center;verticalAlign=middle;whiteSpace=wrap;rounded=0;" parent="1" vertex="1">
          <mxGeometry x="630" y="305" width="70" height="30" as="geometry" />
        </mxCell>
        <mxCell id="YZOmJjN1szqIvKfU1QNY-48" style="edgeStyle=none;rounded=0;orthogonalLoop=1;jettySize=auto;html=1;" parent="1" source="YZOmJjN1szqIvKfU1QNY-41" edge="1">
          <mxGeometry relative="1" as="geometry">
            <mxPoint x="90" y="473" as="targetPoint" />
          </mxGeometry>
        </mxCell>
        <mxCell id="YZOmJjN1szqIvKfU1QNY-41" value="SAP Work Zone&#xa;Launchpad" style="shape=image;verticalLabelPosition=bottom;verticalAlign=top;imageAspect=0;aspect=fixed;image=data:image/svg+xml,PHN2ZyBpZD0ic2NwLWxhdW5jaHBhZCIgeG1sbnM9Imh0dHA6Ly93d3cudzMub3JnLzIwMDAvc3ZnIiB2aWV3Qm94PSIwIDAgNTYgNTYiPjxkZWZzPjxzdHlsZT4uY2xzLTF7ZmlsbDojMDAzYjc0O30uY2xzLTJ7ZmlsbDojMDA2ZGQ3O308L3N0eWxlPjwvZGVmcz48cGF0aCBjbGFzcz0iY2xzLTEiIGQ9Ik00OSw3YTIuODg5LDIuODg5LDAsMCwxLDMsM1Y0MGEyLjk1OSwyLjk1OSwwLDAsMS0uODQ0LDIuMTA5QTIuODM3LDIuODM3LDAsMCwxLDQ5LDQzSDdhMi44NzEsMi44NzEsMCwwLDEtMi4xMDktLjg5MUEyLjg3NiwyLjg3NiwwLDAsMSw0LDQwVjEwYTIuODM0LDIuODM0LDAsMCwxLC44OTEtMi4xNTZBMi45NTQsMi45NTQsMCwwLDEsNyw3Wm0wLDNIN1Y0MEg0OVpNMzguNSw0NkExLjMyNywxLjMyNywwLDAsMSw0MCw0Ny41YTEuNTA5LDEuNTA5LDAsMCwxLS40MjIsMS4wMzFBMS4zODEsMS4zODEsMCwwLDEsMzguNSw0OWgtMjFBMS42MTQsMS42MTQsMCwwLDEsMTYsNDcuNWExLjM4MSwxLjM4MSwwLDAsMSwuNDY5LTEuMDc4QTEuNTA1LDEuNTA1LDAsMCwxLDE3LjUsNDZaIi8+PHJlY3QgY2xhc3M9ImNscy0yIiB4PSIxMCIgeT0iMTMiIHdpZHRoPSIxNi41MTUiIGhlaWdodD0iMTUiIHJ4PSIxLjI1Ii8+PHJlY3QgY2xhc3M9ImNscy0yIiB4PSIyOS41IiB5PSIxMyIgd2lkdGg9IjE2LjUiIGhlaWdodD0iNiIgcng9IjEuMjUiLz48cmVjdCBjbGFzcz0iY2xzLTIiIHg9IjEwIiB5PSIzMSIgd2lkdGg9IjYuNzMiIGhlaWdodD0iNiIgcng9IjAuNSIvPjxyZWN0IGNsYXNzPSJjbHMtMiIgeD0iMTkuNzY1IiB5PSIzMSIgd2lkdGg9IjYuNzM1IiBoZWlnaHQ9IjYiIHJ4PSIwLjUiLz48cmVjdCBjbGFzcz0iY2xzLTIiIHg9IjI5LjUiIHk9IjMxIiB3aWR0aD0iNi43MzUiIGhlaWdodD0iNiIgcng9IjAuNSIvPjxyZWN0IGNsYXNzPSJjbHMtMiIgeD0iMzkuMjY1IiB5PSIzMSIgd2lkdGg9IjYuNzM1IiBoZWlnaHQ9IjYiIHJ4PSIwLjUiLz48cmVjdCBjbGFzcz0iY2xzLTIiIHg9IjI5LjUiIHk9IjIyIiB3aWR0aD0iNi43MzUiIGhlaWdodD0iNiIgcng9IjAuNSIvPjxyZWN0IGNsYXNzPSJjbHMtMiIgeD0iMzkuMjY1IiB5PSIyMiIgd2lkdGg9IjYuNzM1IiBoZWlnaHQ9IjYiIHJ4PSIwLjUiLz48L3N2Zz4=" parent="1" vertex="1">
          <mxGeometry x="126" y="445" width="56" height="56" as="geometry" />
        </mxCell>
        <mxCell id="YZOmJjN1szqIvKfU1QNY-47" value="" style="shape=image;verticalLabelPosition=bottom;labelBackgroundColor=default;verticalAlign=top;aspect=fixed;imageAspect=0;image=data:image/png,iVBORw0KGgoAAAANSUhEUgAAAEYAAAHACAYAAAAfsB71AAAAAXNSR0IArs4c6QAAAARnQU1BAACxjwv8YQUAAAAJcEhZcwAAFiUAABYlAUlSJPAAAFROSURBVHhe7d1XjHTNVf/7Juecc845ZzDONsHGWDJZBIHJQkgI+QJxLgCBhLnA4gIhQCDA2AbLOZBNzjnnnHPO58yn/vOdU51298z08/p9+v8uqWbvXWHVql+tWrWqdvWeF/l/L2h1H23Ri15e76MNug+YPXQfMHvoPmD20D0KzP/+7/+u/vM//3P1P//zP+O+a+ReMB8I//3f/z1C80Np6D/+4z+u7uU5Nd1js1KNfpEXeZGroOoCmtPQZrzygH2Jl3iJES/93//931cv+7Ivu3rRFz1tH9/jQ0kDNEgvB9ZMgYK6/6//+q8BgHIv/uIvPuKUw+slX/Ilh+admu4xYOp1Pa6h7jXMVYN71uB5iIl/sRd7saEl4j0L5Ut7Tk332FDSCFpSj0f//M//vPrlX/7l1S/8wi+s/uEf/mE0Wt6GzJu8yZus3uEd3mFcX+ZlXuYKlIaOvHj2fCq6x4BRjUa4aggQfv7nf371cz/3c6s/+IM/GM//9m//NrRJuiFCU1xf4RVeYfWWb/mWq3d/93dfvf3bv/0aEIEEsFPSPQYMbUkL/vAP/3D1vd/7vatf+ZVfWf3VX/3VSNOwl37pl169/Mu//Mj/L//yL6t//dd/HUACBxiv/uqvvvrgD/7g1Qd90AcNg2tmokXy3Ks1ZpOVxhbnSmP++I//ePXsZz97aIqGoTd8wzdcvcu7vMvqjd/4jVev+qqvOkCQ9jd/8zerX/u1X1v97M/+7Orv//7vB7DA+cAP/MDVgx70oNUrvdIrDa2iNa6npJMCQ8BshCthsRek/e3f/u3quc997ur7vu/7RiM17L3f+71X7/d+77d6jdd4jaEFyjQsaBJA/vIv/3Jo2E/+5E+OeEProQ996OqBD3zg6uVe7uUG/1NrzEm5hbGGzdrinu341V/91dWP/MiPDOBe+7Vfe/WIRzxi9bCHPWxoCpAMmRqojGca8uZv/uarxzzmMWMYGTr/+I//uHr+858/DDded4JOC/MlzYYxg/unf/qnQ1NogAa/4zu+4+p93ud9Vq/yKq8y8u4i5QLoNV/zNQeQZifxf/d3f7f69m//9ivbdWq6I8CkMUgjCG7m+f3f//1hXN/2bd929QEf8AFjGET1/FxOQOLc06pHP/rRq9d7vdcbYJnV8GSTTk0nBaYGzA0SzC4aoHeB8TZv8zbD4LInBVpW2RkcWucqHQAZakRr/uIv/mLkOTXdEY1BGWKBLQCMODaCfdFQz2xP2hIISDl5BPcBBhwa40przFiVOSWdHBjCo7mB1jl6FplRXvd1X3fcAyUwXJH7XQ0tHT/A8Hle6qVeavhC9/qhhGrU3DgaQWvEsTHAQXrcMEJN07uA8UxzEF40DtjAwvdO0MltTD3bUEEarVfTnjxd1DXyLABD+YCa+bJZEd9nE8hT0B2zMahephmv/MqvPBrA1Wc03c+r7Lnh4miGuIASkHJ//ud/PvK5f6M3eqOrsqekkwNTI+deZA/MJrSG6v/Zn/3ZyOfZFclfmYAoDcWX9v3Gb/zGAE5gbxqOp6STAqNh9WykMaboN33TNx3PVtEaxnuNNHoToM1nfASg/t7v/d5YSwGWT3Qn6OTAoE3VpzE8Vt6r4WMmsYhsVy5SpmfXhlPP8lszmfqlvcVbvMXYjph5nIpOCsxMejyB9ewbvMEbDMdMQ03dP/zDP7z6zd/8zQEUkleYNc59QwgofJaf+ImfGNom3vZDtuvUdFJg6vFZ0IaEadpG01u/9VsPMPS63v+pn/qpsSejbCGA2A4zGCBf8IIXjPzWWnhaZ1lvAexO0Em3Hah3DdPLNAX1bM1kffO0pz1t2ArpnD1gGRL2Yvg4ANHgf/qnfxqgsSnK2bZQxmr8oz/6o8fwlIfWqLe60Pws1EHH0smBoQ2ETxhxM0CMryFh++F3fud3RjxfROPsyVgoyg8Y2gEM07tny4m3e7u3W73v+77v0BZuALDlB4T61KETPM/gvFCBofaC7UvCEcaVBiSs6tgIWsAAtwmOpMtbOSHx7MnYFKddr//6r3+1pVl9SFlxBRQggXQsnRQY2kI4WoJtmjOD4l48fwY4v/VbvzW2JAwtGmJDXGM1yLB6ndd5nREMH6C4B0Ri44cCNJIuiLsuKOjkQ4mghIltgPA7eKyGj71cAAjiacxf//VfD7CAEpCGyqu92quNtVFvG10NN8OO0ygNAQbNzcGjcF06KTAaJMwqraFmINuav/7rvz7sBSDYDA0VaFqAKKP8zIOGeQ5kfhHAbHu+1Vu91eqd3/mdx/1cRvCM3KvnOnRyYBCDSN01nh350R/90fF2wAzSNqR02wZCjUYAQoGBZ0MrI6xMw9XQojn3u9/9hq/EiKO5g7q/Dp18KGmAhlgB//iP//jqB3/wB8d7JNWwGXrY+sZwMCwCYBZDQwAVYAFjASqwReyTYakeSw426P73v//wlQCHnzKu3V+HTq4xGsJ2/MzP/MzqGc94xnDOAAYQr0mshvkr7AdQ5BcSY/Me9YwPjROA49Xuj/3Yj42hCmja8tjHPnaAlIakLfE6lk4KDFbsBSP6+Mc/fvQqe2CaffCDHzw0JS2JloBBPQOjBrqnAer5pV/6pTFUOYDqerd3e7fVJ3zCJ6xe8RVfcZSTHwXUsXQ9/TpABNarz3zmM0cven6t13qt1SMf+cix4LMsYFs0KoEjz8V1v/msXGWB69ULILxWYXx1Ck21nprz34ROCgwh2BPqrYeA8qhHPWq4/Z7rNeo9a8UxBAhl2BvgajjgDUnOnzeTSB3eX7XLl326Lp0UGA3mwrfDxhDaL8mWaNgMijjhGKpMWuA5sAXLBFopnk/027/921dacxM6KTB60F5LjWUEsyfFBUbPm2DtI+nKBAoCSA1nfBl4DqN8/Cbk/hDvXXRSYKi4tY/p09TMKw0YjQ8QAR0LCgKAvGxYz8oJgWPIksGs+Cd/8icjbq7vOnRSYJAFYtOqqdk9wRN+php2jPBz+c383RtKNAaZzqNDvHfRyYFh7PSsnrMC1qDNhkTiSj+GsifRDLgrLcUL2ORAx/LepJMCk1CuNSDBkfg51DD3x9Bcdn7u/jq8DtHJNeZc6D5g9tB9wOyh+4DZQ/cBs4dODszsyNk74WxZtxwTOtvbvst1yhbUe6zTuEQn3XbgXH3Mx3zM2Cjion/ER3zE1RTaNL6PalBXxGvOQTwkpnzCN3/zN4+r5chXfMVXXNW7VPcuOikwth0/8RM/cQhBONuOc8MOCScP/0eZ8ttKAHTp+wiY8tlCxcN255d+6ZeONHzIcB06+VCy1WBvxC6+RmkMoWvsvsBTdUXl1cDSGh77grw0Vr32aezm1SnX1RZ0Uo0BhOPw9RBBCVyjWlDuInmksxMWgHrfizXljmmYfIAITNun7//+73+lreKvQycFRs9aRGqIUI8l8FIDiSHdBrfXt3b7nGbQwEPAKFsdrvLbwLJWcy99qVN20ck1JuFmFQYYwZaqKq/XLTbRAcJ405oat1RemrrT0uToalF7HTqpjSEEAeu17ustcftC6cpkm4CL3KPNMoXS6hikM0q7CV0LmGxF9yrX8DkOzdoirgZsCrr5HB8Ur+JcZz7zcwCSBQWOePlc8UtW9/HfR9cCJqYA6RmpsLgETRDPrglTmZnEFe+qTHlrvFA+aeVFNMXG2KyZm1pa2ZnitRmPrgVMmpBgVToz9zxTvRnNQgrx6NlU6wyM/VvvoJD46hBQ4CNxeNAU8YBKjq5oLoM2ec50LeOr52OuQr1kWhWfkZsF2nxWLjtUfPwE96ZrbxrMKrznGjvnneuKj3gkD2AY2+Sa66uemh3v0qMbAeOKVEJlMXXvyvv1RtC9fLMA7gkqr/t4uZ9nLVdDUzo+gvuGi2fpwJPXc8BUr3yuPVc/qq6CNGGmawFT1kCw4ez1KDAs+FSo4e/6ru86Th7oNXkJJh65R/Iq59CQfM7T1fhe2ltSdMDZO3B5ve5FvfuOaqRAtho6xwvipUeb+aP1pwMUc40VNMwrUb2nEc7xcsk5VsgKOUESJiFcpf/u7/7u+PUbwBIcX++n/BayOg0x74r4KfKkefLGF9VpdQDyLB7oytaGqLIzXc8dvCSMagSBGUqhCvWmeO+Q2SDvsa1duOh28p0M9/5JGnAAWUPxpEHK41d9SJw8tPM5z3nOOG8jr99VeonvhKfzww4m0UCnK7wV9VZSOe+7HDIy1A/RtTQm0ggNYOQI+f3f//2rJz7xiasnPelJV0c/NMIJKsJ6EebqZALt8JNhYBBUeZTGoBmQAq00dNw72QBQ763I0E+VnQNmsK2sgSMf8HQCssAld6SeQN+kawGDCWaE1AMAogHsiYODb/ZmbzaCdY68GkJQ77C59kCxQNQocc72yktYvALc8HANLPXhp04A6HFDECBOm6vfaauf/umfXv3iL/7iGHKGuI7QQfjoHEBml2rLSYBBGIW6SvS43zi+53u+5+q93uu9hqDAkEYgV0NGo41xDdNAjTO8BAKKwxsI0gJXmvqkI/c6wXkb9uxZz3rW0ExnZWhhcjj94PS4+tWNp/sZiH2goGsBoycTEKnQGGdTXFVMcOqdQJ4JAByCazDA9LCVOJ8FzXyBpYzhgJfhoPEaJ9AExt4P0mmBFbm6lOEgOhztnnaqX31dI+mCeoG/SdcyviEeQ8dSCf7Upz71qldUToP0qnzKqFg+zxrEBj396U8fmpXQgJXePSPpdwZPeMIThgesUx7wgAcMfma/5z3veYMnLfRrfwcIHFB8ylOeMmwXgGgMIheeKPmFXYBEN/JjXAXqa8YhIKCAI55gbAoANJ4GANEwsrtHA2xB0iKBFhkWs8B4/tEf/dHQLGDhCRCzDzKzycNe8ZuUA5IZCNjAdKCI1smjLB4If/mj6p3p2vsxKlWEsF3ZBVfMAeRZgxseykgLOPeu8rk2BFFlNFp+PS1OmeoWkCEMDHzcV395kqN6k7ny1ancJl0bmARHc2VIBRrUkNMQQimTwPIXLw/hXQEwA1U90uLVsCzNtXLSUJ0gAA1g0htKu0jeTbo2MDNVNMaehbln6hX3M0BpSVrQPWDxC9x4IfdzXXhtxiHP7gX35SstmvNv0q2AuQ4l6EwJRPB62jqJ/WAP+ERshfgZgHuCrjVdn4JqHCAAEgWc6btzu3nFDbF7kl5owEQabPiYqSwa+R5OXfKSzWqAao10T9I9NpQ0TGB0kWqBBBRTqgUnd57T128kufr8kXd6p3caS4im23uC7jGN0dAMIIDqD3GmVEOLb+MANX/HMLLYpEF8F7PLPUn36FDaNYwAY6lgQWlTSlxTuJnJdgZnsen4nqI1YAglpPb1KiqtuPlZXtR1Tit9zqfRgdRsZM1jGcFTBpZ4XrKlQT+YEFD38ey6mTanC5vppaGZj7r3AtOs0XWOn+MEz5UvbS4jzOmuUQDRGm8H+gYEW+SZtuS53qZu182y5ZnzupdvayiJnAvNzDQiBpG4bId7w0B6DXYtoHhFygrigOAQM5BsKtnCsN9T/pvWjfCobVHpyVReHfFi/88FjacLquIyu5oq/cKVe01gCzJTqdnELMEhs9hD0i36bCciRtXUa9pNCzybgj0TRppZicvuWToDTFsMLbOUBi/VTU7p+C7VbbYj31w3/ureXDKsAYNUUsDMbr3PBwDIloHVtGfCmU7tlvkZDMae/djcviuP1Q86bR3YTWMnLP9Ny2abNqj6hVqrbtuQGmTLQP1+Pihe3WT5gR/4gVG3IWfD3HYmEGhbP3RXt0MB6rbLp255qpsLQHs4kt48ABno6pEPcFtDCSBoVnECpk09SyvOs3j3CEj4zPldhQBH5a8ez4RqhsIHCPPwVlaQV9isW/m57pm3e+nIs3wCxxKgtkZpEFpz8GIQEwhCGJpmDRpB7fWoHreHQn3ttegFdoGqy+NeT6mUttEePUnVDQ37IxpFvdWLl6t0wtqjBYhhZabCz9BRt7po2Fw3foa8hrlnm/DerBtPdc11y8O5tC9k00v+NWAUCmkFfcbEGwAZfc6RetaDjUv5PQNSg9gi5TlkeMSznlNevvZPpCP3PcsXbyCmBXeqbs4kkNSjA6RvTdcI0xjoLUimguLYivII0gRCGKPSxRNIvvk6bzOKU66GCdLER/hJx1vdjKwyZJUvHkh6vJURHz+81Y2fe3HS4gUc26fAGrIPLpeUgAFE5ey421wmkDQ0Cl4KK69Qz7l3RfVI/FyVrY56FM285zyl40l7xFeP56i0uWwh2Yp3RaUbnr78yvAzH+K2NGZmSjVNb5Cc05B7Qidk6YToXrprjYo2haw8Kg65CnMHCPMzXnUAit9Mu54DHNGaeWTgsXMoJRjDaTqF5AyOALRA0ejUv0ajTX7SCDQLNVP5kDzVVTzVDwjpGmHBidynGSi5lCVb/JK5tiC20/soyw/gjHwj5ZJqlKtgTDJGZqAaLp0R614F5XcvnysSVyPEJ8hMCRh/eSuPPOMjXUOrb5OfOM8FNPNB5K58JK9O5uwZUuoYAF+mD4phVzamb0G1xWjbkeOkMIYEz+DVyO4JUJx7eVVMCFroNSt+DB9+5RXme+W6iuc+sAmmasFun3SET+U26y8PGchenXhokxd5O23MJhHA3B+SBFPYNxUwGwwuG9xUKC5hSnevfFduPG9Xup6v9+VFlY161gHq4idxyAwjcTot8KpbPQETDyF5hMjEwkfz0i5ZttZKqEJ6lB/jxRoHz9ULLc4VZwsz0x8nDGAazO2GOt8HqOK9XnXVS+JpDGfM2BZnXHPWNJYm6ElpOkZPsnMcMHLJa0lCS3ICOXWWBOqVZhkBPOlkoJ1e4+ItD4cQmJE2aJP8HEPg7BxKiAZYQ1jt9vtpu2kE8L8B7LYZAsAEklemPEjWnUYBlVZYRymLgMOgq0c5WoePmU8ZVwJzLHnQgCE0T1ZPA1hdhMeTDcRPZ5kcAAikwNdJHDfgkpV2WdtZH81tVQ/gxOsotAUM1SM0QSDIxthzxVQlQBLkJZT88gp9cYzgvj1FcD0svu+6WAim9oQwHABEY2ilT+s3O+DjFYpGAUogB02V7jOV2QoBcHg4oGSt1a/1DSsHibzK1dk6sNFBfu2yTqJZRgXZdtoYlUjUg1RWz6vUStXX3b/lW75l9JJ1lAoE6yI9CwwNorINCapLICpKyOFyXwCJPGuccnjIS0sZfkBYPcvr90f4BWohO2PoIKtwNkN90pRR3rP4hlB8ACPOFirwyCF+JzBRaggcqq6nrHz1lGNcBGcrVELFoU0YQhpShqM4Qa8Di4BNm0ijxEnXEYaCbQsdYZgBzdDlMhg+grKVByYN0DgNwgMvQ0ka2dJolJZeGdmLK5fE4pFG6dQRPxvfKsNEYqjKbGbyrRaBercfQiBDhJEmlD0RlRuCADHOlaWm+BgmGp89kZf66yng2yNRro/wGJLqIRtgHTEBJkOtXg3TEeojLznwAT6nDQhAooXyutcR5KdN+JKFfK40doB2kXA1L2LsERhCPY4Be0K9GTbxhgOD5apy51g+6qM+avChLbRKZX6/5PSTxmSfNISG6VHAmBHUzf6INxzYN8PMMJYfUPLSWoIz5LSIrWF4DTVXs5dyeNsBxI/mK0fb2DNXdWgXAj45ye0klrSt/RiZgeKeKjNg7ISegjRtAozK9Zh87M03fuM3rh73uMcNYaXhY3pk1D790z/9Km+gAoKArkKdUd14zEOgq/LIM4CQvMqheMgnXT78I2m1sTI6naNJa52poTVbGoNhAulx07DeeshDHjKMq/GrkfImLBXX28DDHA9szTTUMzUWRyiAIDzEJbh4whaHf88CchUnDSA0sfKluUoPgOre5FE5+UzZyhi+8m9pTOhL5BwxgtSV0WUjNJowmNSwGiBN41Qk3j1+VBwPcQnjqo7ydo9X/OLtWlAuvsnpWll5InGBHZUub7KwO5QAKAy9IbU2KymkQPcyNAu1H0NbyuOaYMi1BiekIJ7mMMK0q5U6wYGpkV3nRkjHT94Ib3m7Z3f0trzKznVKR3h4Fsg1yy+wYcwBp9SIQGsak2Ax5unyXQwhSOp18fuIAIRmQxA+BDets1U00FAzNM1O8vOFxBFQ7xp2c3nxNUzjaWsgIKD410TcBwZbGQEoyiF5A2MX0RjAqFf9DPda7ipzFULSzKCBx5DGoYTCgwFGpnrGzXRtCtZAdkgewxTwGsAvMZOYQaTJJ9A2+Wme2UacRnEJyqe860xLoCB1c+5M4ToJrfkxAYORe8gbd9ZHbRIvEY1LfZX1TD2B67/j6A3TvSGq5+XlIGYzqLHeYsg5lqZR4JjOgWlxqJPYAzOmaVU+dpB8gqGOAiitq227yKyk8wx38g1zcZm2k0zPnC8CaMghIgBNSfU1VsOAywdKxam83pFH3npeXit02iSNgMARR0MAQqt8Qg5ANAcYepmMrupArnhUxxLRUMMcQOwfWgMGsxijlgTsQ0ZpiQJmFgoQGi54ph2GJccRcEi8ssqpk5B6z9ARB4C0UUfZOAOa4UObabKedp15IWXELRE/zTD3WyidiBaBAQbDSViCzWm7CCipbVrD4eMZ63Hlxdu/YdQ1PCBR5Qhn2FmRe7HPWGugfDRXvgx2nYGk7wJBniUCMmA5dldDcfy9pJhWkdnI6xOqW4ElUl5IQAKxJ3rEMLDPQvssJeSpdwLGVV6uQRpGW8hT44qXV1xAMcppYPKL736JlO3XKma5Iftl2qAa5Ioh1WQMNU6PHSLlEjheTfW0xjqGocTXcNBDbAT+bJAr+8N3IqypHA8yCGYOZcmiHGDZHDOdoWeIqjdZjiXlaK8AeLTox5gd7IoRwkqV4OL3ER9mBhAfABuSBAdODaUZhGBrxAFT/Roqn+GLPBuO+OChHDtFk6TRZP4WzSFn8s9uQ/f7SCfgIR+bZdJZA+YKrcvGU31fcNbr/TuNJWACFrkSCk9XDVexe1U2NEqbnwUEZPE9z/fVk/g6BUjJkE1Sv3qX5OYKcBuAa/WPz9pQUjEGBeptA4e1bkmwRNITdBZK8CzUsJniO1/JEqjKleY5Oef76vWMpMWntH1EE/kxbAwNln8NmE3C2Jg+hHiktwiSMA2rUdGlwKh4Dce3htWAua4aGMWnOOkIz/hFno+heKi/MmvAzMIhDo8dNUbzGD8GxUMDajAKsEAW7yquMnMvI42toa5zw+sEJE6ovBC/eC+RqZprYEJgt9BOYGKk4oQ7poKGDErAmUfPpc+aOMfP9zM4eLsXui+vfPjN5Ln0JQLg5up+a6NKQBiavhgl9oUB5lRVcBdhlcBRjYg2n3fRnGe+j7cwa8dM++razDcTv8okQ1us6djWNTir2FWAIofH9RhSFqCuheL3Pe8Kc575Pt5ovp+pvKXN9/sIL1M0BYjvFjAoRmxMr0ePtTF3I1m989O8WKQ1W8BcoXVxFcznHCpoGsPnSmxLez+Zk609XyGNYWPM8WwLgI7ZergbyX7R93zP94wNK4cw2dNFk234tFsG1XMlI4PHa0gZKWjnkqBEniAkbQJ5aWa+P0eiADqfuaA1Y8U+A9P4ytY4FmE5bo1kI+fQIjIHTHls4zXG7GU5Q9Oq2WaU/PJJm8S4EfHQrbIFs4s6j7WL7EunM7wRsWrfAsajoEFtMKn0CskDwKAZGMK5mvJtR9q49m65/ZPqmsS4EXHmgNKRk4YFmQyVJbIV8l3f9V2jjUbGOOZyIdDWUNIQTC39rbANIe+GB5ILwGCFBzDcC/jgx1H0bRlLDM8aAixXZWYX/6akPOfMNx4+7MM+bMThrY4l7bGnzCWhMV7r2CdakySMajx1/6Ef+qGx8ryuH4NHfDiJKu4kBJpfxwBqCfBjCQ/DwtsE76K1J+CXCJgOPDEXi34MdN1Dzu6bnTPqeEh4Daxn0hbXdvgt6WkdTRHwM1xrgPw3Deo11PNJdCb+o5EX6UvELTG8jQ7yAHLRj6ElXi2wMcc4efMwIiBB3fMTvuqrvmrYFeOYEQeEegBEcPeTKNcmPHoNAny25gu+4AsGz4buPmJjfPPKzqJjIFs2xq0QMN4QWGBpjH1Y4CzRDIwG5xCy+F/yJV8y4pxZ+dAP/dDREPlcCY6q9yakLM382q/92gEC46sz0KzJu4j98y6LjdFOzuxO45vqUX9n7mxQ+3IYI7wk/AwMYfAR523kF3/xF488ZozP+7zPG/dIPuHQjLdE1ceW+R9ueJH1K7/yK68AWeLtJZvhJC9tG8P6Mm2QwlWCGCVW2jRoOB2iufLu44m6Akx8eQg0l70pxcMwPsYmRtZIJgf+FfOh3JZVEqkBAsfOWPXy65AvgNK0aFQwxXneVGnPc6/eNGyCjXbF7SJDEChsITuF1lpSjyL3jKUTm+zMPL2eG5kMbGv2RdgB9GXaGoUyFTOFeb90zsCYjZgLTqzlBFoDJtXryoA5+8pSH9rWvJvJUPIu3XAylEwYOzUmMj1bVHWi4FwJGM7bmLbz8LdszGxneJCQ5AB1buQcySRj9nV4oReLe40vCkmHetiYzfRzIWbCe29OoXu0BgykNH72YyyseKvHTNd3K9kjMjJ4v5RhS2PQDA4wuMedMDhXat9JsGxBi0PJfm+H/xQ+V7KL4OTWfGR3p8Y0XUPPVoF1RMPrHMnaimMn8MIpyBowAEFAERgjR80sC7LW50hsjL1tezIWopRgS2NmAhQrfZ0F2d1IgLDwFPbamNnO2PO1ee01ynW3Nu8mMrnMx0AowZbGzODIAE1hE7Rzo9qZOdk5lAKi46ysdY7POVJ7xPZkDh5nFSymTNOAOmfSZna0XcSdwCAJqGMg525j7CIYGdZLRx0DgaCNcGhu7rydExkZ9p74bEbH1rZDmtKVjXH0ilfYztY5Ehtj9rVbyZk1cnYa36g1hMxQPFey12Q4WRqgraHUbBTZuPFBPl5hm8TnSDx8r2jtVtr/RVtDqRkJMUTeynGA2JwZtJtQvIV5WMZ3Tr9OmAlfIVtxDNmEm39+hLaGUkxVCBRf54Bkm8S3IbxzoPCfhd9s4HUoXhq1qfWehSUCiNmXL8NsDDkv0wbF0FVgpfuJ3W1tTDwLaG7EZvp1AtIY5DkgdAKwSttHnFc/RXRyrHXhTmBilI3xKYLb2ph4Ati9ML9sOwXhFd/a0nWJzL6+OeNIK/cEjzVgIBxj9wxRn6ZmuaXdlDYFBpB7QQ9Lv2lA2QarY/XsAmkf6XTnabw/6xjIGjBVEuXH2Pc9dNLhEBFuVHhpxBtGrpv31w013H3X2qK+4vcRU5Ef47dL+K0Bs0m8QUc4HFK87dZmwutRdsswFbyFcNTL9TbBuRh82QgdEGCzVu0jw8cHO3wXp5GxeAzEavO7v/u7h1HyNZBDx0BQ7BIKec3b7945UX4ivLm5XrnKuDakySVMou4koNuFA4rvxXz5l3/5uG9Y7SPTNSWQz8gYi8mLyq5qw0TAhEB6Aji99M4w7aNY4RG4GuRQAGDEywMUV88B1OxR3er0LlmdNMtPknvpVz48BPcaBRiNwtcs82Vf9mWjfvyk7yOLZb/u5ZKwqercGkpzhTTEDw9kpqKHiEAoHt0LAKCmAYbkSRPkkRYPds3JSweWHv7wh493XDVukzfK+OIHIHXJF+8lsufrnZK3IfZj0BowVYjcOwZiy4GNUdkhSogEcdVYV74CoYUar6E1Vpx8elxeBwmcQPBjdJ1jCKZdyTnXpXw+iNDm/ZxnHznt4PWs+o46BmIBCUVD4Rjjq8wmuILeM8PpVUDM9iXgxGtcqi+vznA1hAJOqExUnLzVZ/1TPJ5LBBgdwfjm4a8BU4Vd9RLb4sSDXpyF2UWzEPIGkjHba155AkzeGoMChjp7ZWr6NCtyMtkBeSN5Pcs/A+De2s4rn/gektsUbWSYJGzI4bP1+X00M2KloW9BmdovEWHLh49AQ8TZ97AWUbm4QEKEMYzEO0BAWx0m4Hg5t6JsWqMcqqxn8XhY39k/4n9lZ0rfR+rREUaFoavNW7NSjBDbYvpLc/T8EinbzDCTeOsuvLzydYqTENVXaDi5DwBAA2uOl8+9tJ7l0SBycu0NDWVQvPaRRWQ/sjATGlqLfowpjBo7InH/+99/ALSEPFaEUd694D4V53pz5gTCNAPMPJUPIGXn8jNPz7O8NJp/pMfJa9gGTPn3ETnIA1zDkKYt+jHGNSRpCsM0VGyhgonVIM/y10iklxlTIM0GPb6V6SoAQPn4lxeVT2McANK4NKr81b2P+Gt+52BG6kcWO4eSoDJIcrUBwqdpOjw3cozVz4u10zcs+ExrUE4YDbK4sq3JAN52rXRvpvmo2V4/ZkRejkmzgzWE0Hg9RzISGFwmw1CkIGvANBaBIhg+7/Ee77F2aO8cqWMglgXMx7CJl2k7CXpQpF6HDNjdTE0IzEVLn7XWZngjs1K/YTz3YyBGhu/k7D0GgmZw2BmhGeumNIPevYBv9mszzr2p2jWa5SjvbcloKJjq0c7pGsnE6Pp2E/vSB/huamdqhKvKjWVuv2Fq7wX4HD/jHRjsmz2VsWl0Uad4e7LUHh8bUZw5VGNuSvj6HLfp2jc7LYG2hlJXlQs5V6cgfPHD11gGvLEtWMVbNFoucLjcizOEgcYBYxyl9ckB2yLJeBuqs2rn1lAKmIiN8XNgv3Q7lY0JdAQcgRPJV+JP+CaWXnNvxWvx2L6Q3015lSqdpvVKZ1Pu6xLt7BiIyWYLGBEj8gI5VygaPmanU2lN/A0lQ4cT6Qp42xuGCM/TNoW4hhZfwyqYFhle1m6M5ik0GrAtUeq4NY5zBRpgMdYr2kPrpENUr7bybggQxn4I3maEOkUv6hSrcvFWzMjer5nS0Jo3sG5DtNIrWjzJsgUMmtXS2Naz0LztOI40ol7B07UNLIa1egwxoNFaC0QbTz5h8oAHPGAYa/sn7A2glbsNGRGGLu8XkXENGEKiesDuvO/8e9ndeL4pjcouNdJ9dbjaXAKEhgIDOAwtecwQjDQbg/yi1yaUGclQu+0wQoZuv9QPnJ0ak9aYpo1jBokAszZdl9IS1FVP6XHTMvtiY8x7LJ+6Zoy9BCM0jQCMfzDj/wf4rIJyfULyttO1zrAfw57VxjU/JuFdAWEM8zUIAcmxgXPZ09clfAV8aQQtoCFUWO/TSIbV20T5gGX4GGYAtL1pKmdz2B47+oCbty9vSjqhr4E86EEP2v6lfuO7BpgmCUNrvNi/rYMnzMAbPq41qvrTAPF6U+MRzVG/8sBCysh/G63RGQyv9lkaMPxrwFQxcrVG8s0DoPjmwShwS2AK+wgYNR7VSWguL48AGOkBdRNiq0wy+JgBjZA1/Uuogkw2h70TklncbUh5ddRQVCNnKm4eeuJmCiCAzPxuQoCxLJiN/5aN6ZFgCnjdYZwD6Ta9MvNG7jWooRU45ZNWfADNAEgTX7nbDCU2hsHnBvjiEEXYglqFEWfH+LOQZA9ORdUxa4LrXHckTocEADlGj14+B+5tiPPKmHcKA+81YKqgSq2V/B8jayWzxi7Bb0rVMYS41AT8Pet9VyGNqu5ZhtsCErGdfpZjP2anH0OQWQiq5bWJ6ZSNOSUBIwB2PaNdcXq0uAC9rWxcACt2fhRvH+3cjxFUysaYstkYIN3Gj7k3Exvjf8Wxo5Yc/Jg1jZkwGvecMI4Va31KG3NvI4B4pdtHL4Y2XqatkQSBtlizeBtpGjtX4n3zou332OdBWzZmDgpwy1lrw0ncORKXpH8kwXwwKVvAzMRC2zCywAPMuRLjCxR7PYAZNvYybVCGN7LaNJSOPVF1txIF8LvPPjk1RswFEFdIcJxQ02DHQHiCrPUxx0Ai9/i4dk9F86ZNi0Nlpzy3HarsgxWyxSB+My3xtk6y7WDa18Yx+14wuOJAUAETAttjdfxKZdA8tL05NxDI/A383ONnC5G/gCevmhbmk1jAynNTwsMrHkPf7KKB1Usm9eyj/iUbYB2E5Jrs9WNUBEngAMTWwyEDrFyAxKNpHij9j4Omf0G+hL8NqYuc9nHsUdsG1fPadGihadadj4FsrZU2hdMYSOrhY2xMYHQfP2UtK7zUojE2wAyl8qaltyEN53exiZYxzMAswxKZfR1RM2U3KnbCKEHQgN7rZH+WiBD1THs7tMcuoC+mWnsBQZx01HaG+NtQIODTz4nYs7R3idgkIwJAtGu04zJtkEYFitDiCpLHHgNJwJn0pP0OBODsSQ3B95Dwh0h5vDXMEPWuyjRcPUuk44wM2sZ8DJkuCl2VctsjYTWItQaKcdcW4z5SNs0KXCCwKz4ISjsYNpvYiADKiL+txqjL8NRIGsMQf+ZnfuaYNPBeMr62b/tPFt4WaOtO49twYA8cP6U5Xp1q1BIFDCHxAIpnr1++5mu+Zlh9/37ZSzx5UEJ7nkS5NuEDGEOILfN24VM/9VPHVgKqvl3EXzMh6CCAsjNbxreANIw6GqsaeIzgAEl9y0+1lQdAWxm8aZtD7k2vnt3fNmiU4QSoOngJFEQuM66gLFoDBoO55yy/9fB1vgYyC6GS+KXK7glcfEBW900CmvnEd2n4zGSC8btPJywoAh5bGoOgLSCZqJiKrkOD+WWZ+R55FjbvT0F4acd1+GqrMnObdwITw7Y2GU/D6VzJa2Ajg2N41DEQRB0D7FxJW7ODac4aMJvqzsZwrfkyeYTnSFwSM5nZ86hjIGYlU6BwzlpjVPBh2r0bo2bcXdJsfBBHyVk3vgyP8FyJz+NoiffWRx0D4elCspf556o1RgaP2T5RtGVjAND05WW+V5a83tTsHMnhSB6z42YA2juU0hpTtP0YSJZ2jmRkGE42t1rtrwHTUElz7GyxMbYMztnGNPtaQI7du01gAqRg+DjzNiN5jmTfiRJwaPNn1oDZbLiVpk1wh4P5MedK/BjbDtZLtloO+jEWVDOS50r2m6zwHV6w8DVydhrfNAcgTkja3Tr1MZB7E1kr9Q80rZXQ1lBqRkJ8GLvudtzapzhHMrF0QIpPg7aGEnDyYwACyf8bvs5qVDiMubgfg9wzRF6dWBqE5DmSicXunx949O5sS2OQBKGfwzhYY0o7V+KOONXhOznNvls2Zg4WVA7UWBocegt5N5PhY2SwMxTgoB/jBRT7YtMaMOdK9mAA4zVKHv6WjZntjNcKne8/92MgXipSgHYSdhrfNMfiEZKdZpxBOyfilnDwmAzOHtoaShqfo+d9LqPkH2geegt5N1OHAZx6aJJZAwbN4LDQpjALSYvIcyV2hXPHLWEytoZSmhKZrr2E8qr2nG2MrQbHQBw6sqOwtVbKtrgKbVRZfZ6zgwcML/K9o++w0Rowm/sxHQOB5LHHQO5GMvv6IZfDRobVFjCbxHex8uQZHvse+G4kMy4DzJ9xj9aAYXSFNMO2g1cnLPY5v6I1+/oFrSMjhpX27wRGQPNrhWOPgZTHlUrOZdzb12H92S0B+OyYnfr53tVzeXsuvTyCdM+uplv1FMh9iGypmIGBkluy8+AQYm86UMO+2N06ZGcSZr638+e05td//dcPAfhEgum/PJWRXgdk73SOvGP9chGHmj2ly+sq3ZWnzrW36+9ElboObZnw7MkIHK+KmI+dwAzjcyGExZXP0vMMVXRoIalcjXHFwzQfMNKBO4OC5A0UgT2zk8b4E9b4pznGP57y4iUg12xgax3D47M+67PGRhtgAnUXOfnu3TWN8UZy6zhrFdV46qnAsV8DmQVF8aGeM1CGpgB4DXGv8ULx3HNH0vzTcB+40DnSaXH5GUtyyV8cAm6dA7Dk2Uc6wDEQduaoYyBpz3U3wgmDh7L46LFeSwjFy+eKNIQmANHVqt43M3neXeehXGPlTda0rTrQMR57chSUXQNmVjcZen1ie5NKi1si5Qk4V0BwQ1D8LACSXgPEAcczlaYhQMITIMI8JFyrT7meDTf1CcpX7xIx2i94wQvG65OjjoEkuDDH76PAiBIWqMbt3JMonoFV+T5n4Gyw78tYkph9DEPp+MirwfHzDFCa6d7w4Oqrw/MSSQ9I/Abv+bO1CaoxiFHyNRBT9rwk30dzQxE+4lzZEta/PBolXl5hHhKCXgSKWbEvuuZ8ocp2H2BIR/hNgOEY3yUCiI5jqO3NKLOmMQmV8DIUUPH7iHAJXF5xKmPcfOrIbCGuYZMWZYOUFXLTdYx9ZwYWNSwqGxjiaZThb+ibdskt3yHCgxHnA5EfbZ0Mx8hVBhkJyIBRS8guoa/cDMpMGm7Dy9eCbH7hra6m4AS6KZGRDaIlXs4DqPYcMsA2+32eRQf2K9o1YEIfM4IyRM7kA8U7pkN+zBLhSUv0jCEizG831XdT3ohs7Ap/SwMR3vFcAt4wdTaGqfBhMDzWgCF4Pe5qtfn85z9/2BffVTEMbgMM4FNv93h5ToSb8lae7DQjvgWkvqWZSQdRAuABFchrMNZrroIM3GNTJ8Y3FRzFVwM0BCCeCT31zY0JKPES1NezepbIMKfBJhnAKrdlY3rE2EwCSQAZThnhm5DKqrQZaRZcfTcFflNuwTP+x/Bm8573vOeNNj7wgQ8cQ2kLyipAVIz/4N2unr4tES6VDpBZxWvATUL80Ojxi7h465AlYrSZC3a0Ttu5iKwCL7l9MEuBY23MxO6KlME7AaujejzL43mzfI0+RPFwTVMiz0vaTgHMvvJYKw2P+zLtijBOEI6SqYu1n3t2HxGga3wKNVyoV1BpNQp4XfGZQ/lRz+wDUl6cdPy7R4dkN1N6S2B01HlbwMwV0BQ+gR30Q14v4pMol0AZ2lnIAKhhqHTXgmdCanh5PeNZOiqtuMqV3vMSMRWOy9tFsEon4xowMzNBJssCO2fH2JjK13hAMd6VFTc3ssbMjVMWGBzA8ogTop6lU3tXnrF6aIfntMYwSav2kTVWR83y1bY0BqXmkPReyadSjnmvRBgNFZoC9YT3U4QkMJLedQYl0kg+lP0VshBU3gCJilOW99p+TKBYb7GTh4Cx2d97JeYDrQFTxQKBGCIHarjX/IRZqENEGK88gWrxqDeVp0U00bhm8Npx0xD3OkODrK7dt5ElDk/gKicN4OLwBabOA5b80tkNHXuoU2kV79eCtRX8oh+jMkKYzjrru0SD4UU5whpCFoCcQ89cbV6lJQYhAI+3mc77cb0MRACQgbY5RgtI4Ah+aIW/Y2HiyWNtZGXsyLt7ttBWanJYn33cx33ccFT3kQ70xSGKcL/73W97a3MGBvEEFfL5EIIcIsAo76o3CemVhDi9p7f1ZtqAaBPhgSUg+WmYhtmTIQNbIs7QJBeVx8sz7ctwWonjx1aQWZm5TbsIIE5T9TkYoO60MRKQMWusEzg1PUTyCDaXNIbQCLgAoxn8BULYitBAe8saA0j/yNJZFQLKCxxaR1toLS+VLbDfojGdUKCBNBzohj8+ndI4NJQAQx77MQwx2gJGozQAUXP/rIHFPjSMEOGUNYwYPTv7fk/pqvF6OnCAEEjiAOBZQ9SV0aVlPUsjn3vxhriy8pUXH6Ai6XjW0fuIplEAnUnL5N8CRmTgQBLqNqIJdQwRzPCAvLJcbT2Il6m/hmSMCa4BbAAjqKxhl6YBruEgv4mAdtFAw0znkQ1Y+DiyohNoecb7UKfKw/YJZBjgX6YNEjETO2HsNpQOEcE1nEo7ZW0XzSsJV6oqXiOAQFigMMga55gXLWIjGGDxwC0dQPjjR/NseAHAKxa88AQ+m0ZWfDSY536oUyvXMRD17NyoQhKNV9Ya82O+OKS8wLVOC/S2OD1BZa1g2S4NlkcjNYwdoSmeCQcIq1xlpKtbHF46CsiA5X8AwotBs4k8tEkcnuSlZUDfRwDUGcpa/gBycbrm8RIi45Rh2kcBS2sQwfEDjsrET9WtgVyZZDA0lC9Oes/KeWYP8JUeL/HKxke869JwAqrfZAGv30XunJUiPQrtVP8QzY1z74r0RILOgpenq0bUwO7jqUxx8qJkkoZ0gHsdVD1z/n1EY2g507HT+GKQgIh6eQl17DEQhhfp2VmoroJ41/JFaZd094E1N7JyxcmHd8/qr17kWr4l0vGGJJPB6TSL7gQmAYxT4ECymWGJUmvCIYLVINeEFghbXPFznAYJtE0a8ozkmxvrHjhN0/Irh9Q9591FaTSfyLfDn/70p+/eqEKEg54pzNjrhVtC7iJlBXlc8YhfcTMtxZHF/czDVZwQlSY/AHqOj4DHErGjAAGM4SnsBMYVM2PPlMg7pW7DWk9CnQvxr+xUMhdX/8dtBsZwCWlXBfxWkNM0/8L03IinzlWgDKZ8k86ajmm0IIOrccvO0BxadK6kvcBgKgzHg34MJPkyCkBSgXMktsVvP4Fj28HstGWVJpzGPQQPGa+7nbRvVgj3O41vQFhxsjG0xS/ZrVnOkSxXuCWUIGd2DRg2xWPzvh01u3DeFhz7T3qjefrEl6/AuFsLEYIwnssj/xLvQ6Qs+QwDayQ8hTRgSeutu3i+ALE+2wLGrUYgApu++DIympEOTdfKC/JoNDDwiyefyD+qdBDIlgD+8hCa13pbYKznrOR5sfwuMgRInb2L5mMgXtFShDUY6zWNc29G0sPWD8eScihvEiiEs4fytKc9bZyeABAgCIt3rryyNw3qMvSf8pSnrJ7xjGeMFTz+Mzj7SL62OQJwrcTc48jcriE2l6nbIVI2IdISvJR1/sTeTnsyANGgtMq9vDcNGoSXmdRejGO46iAT3ktkoewVtO1QI0Mb1oAZEVMwhCCpIZ4JsESB6qqn3ONh2NhYIuAYvxfx0pFnDTok/CHCD8BktYfDk+V/tX5aIuWMDPnrpDVgCFxA3sw97GEPG0jakzlEymEKmFRSRbQEOOING1cGMqE1xv1tAh9EnXUioACkrkOgM7y+k0PLDEH5t4zviLwEx7sdayVjD0gqXyLlAYEIiRcBvfR6whOeMLTD/rG9YHnTGg0L0JsSeYHOljGmdvw/5VM+Zax98AXWPlKGRlsTehuxddQs4WJip7/pmrXmx6RNu0hZPJB8Gu7Zno6vs9ISGviIRzxi1CGUf0nwQ6RedbEpT33qU8chIFP3p33ap40ZaklmxHUw+xrSRsbQusu0QSooIEsBDo8fpjc0DlENRgSqJ/FsporXXF95bxqyVQByReKOIe+lDCcjJI1fA6ZK0hzW2q8xnM8F0nUoYRGg3AfCDB6QjgX9EKkTL+C4VschAog9X+eK2SV8tjSmq8Boes8zI3mOxHayfb1q2QtMSAOEp8pxom7nSl6Z+IWLQwHsIFoDBiADrUtVZ6W9nu19jbRzJMa3N6C8faZkDZjNhkPSmz9T3nVtzN1EnDvesheMzMewg5dpg7ItDSnOjhfd1jbXWS/dbWT4+Bq90bFoY9KckOyoRennRpY9jpT0MXa0NZQ0PqeLk+RFt388BclzJQtPw8jmPxuD1oBBMzhWmv1vs3MGhu/i3ZKlgZGxNZTSlMjCr2Mg52xjKICpmhKYZLaAyba4Cjl4/zcYX4vOeaG8Bszsx7g2XZ/710BMMpYD8z+F2bIxqNnHdgMkrZmOXZDdjWTv2faKTfo8/DVgACKkGR0Dsf1wzDGQu5VspzgwZIuiw1E7gYmAwU0GUFsH50jsiu0VAO20MWlKs5Mh5Dytg4aHdu/uZtLxNvwtmHduOyCRgBH4Lna0+hde50pmXIAIOzeqgDHbGEeufPPAnu052xjDyIY/O0MRxu7CZdqgoUKXWw7u2RUoms7OeaPKyODLWCcZGVvTdYAUen3ilyOQFHeOZL/XUbNen1CCLRvTcEKAYHS93jhXUFBtdjVKtobSDAgyVT/3uc8dSBpS50r2er2itfFv3YS2gAkcBEHbfpbim2nnRLMJuXqzMf5ekgwoQ2vj5jGPecz4HUGbxOdIfvLnhITXtM40A2gNGBoikma4b34/5xkJabOlgNkp5dg5lGREkGRj/IM7q85zJR7+Qx7ykOHlc2a3jO+ImIK3eWYl9yjAzo0oQ7bUSNmarjW8gBzX8h06P5ayYXyuZMvBASkHMTmzwFkDBols9oEgh+fc7YyZyLLA5j8aI2bcXVKApDHWSk4m9c/tSl+i8rgWZgI8J0rw8l3o+aYhHq5z/fN1ibxpba2UH7PzOCvEgONlm7Nz0PRTYIYp0HaRskMNL8q7F8xsePjWJnulcksMa5LyVJZNK6568Gv9Uhw53QvlTXbnedTn8I+PkPqt5aHdR8PHGwKzkpf75Nx5cEjQONt85nWMgaJgwu0i5fDoXt4ZGM8EtiGE55wXAaYhC4xOWik3HyqIt2v38pGZlttfoQWf8RmfMd6JHdqv9ltuPoz1IJ/NQaktjUFV4vUJrTH2jqmgRlBrV43TIGdPvu7rvm7wT1Pq4bRTfEMLaNx0darb7xkcxvZiTH4dpLzQeZi0Spx05T77sz977FnPM+suoi0+i6B9Nv913E4bExPIO5tmz3fusX1EsAiP+Ol5pBHyBLzGlC/74BlQDit9+Id/+OpRj3rU6tGPfvRooDQNR+WPR3yBIE3noFkz9xFT0Z7v0cdACKQgAaQdQ5UnUL4QQTUqITd51ft6W+jH7Moa99Sbd4pvgCcrnu5dSxOPn3BIbptwfpJs2jb08VkDZpOB90q+yNFXNg5RGjHzCRiNJaw0QQPkBUhxelrQyzSU00VQV/kqr2yNFh8P5bgY6tLzgFSHfEvkYGL/eIprgv/WUCogY9rrWdsPqeYSzWVdawjn0Owgrl4NDAERvt7nGngB5ksfXrYbzr1XnsFUBq8aDhDp+NAyU2/8lwiI5GPTgDt4z19nxRRhjAhjRiGQIXXI+NarQsDgqTJk7SUPrZA286pO5J59o9pk8OEMu2zxDNioONpl+Hf81mGEzXp2EWDNSGZMV89rwCAVIMxoiYapyCxxaCdP2XoPlRcwbY0SHtBsVobTdQhzEeQV8DKE+BhsgHylye86lzFcxTsAxFnzjybEp0FLxCVxztC7ejPSaOeFAP8HiQvCxKOgERrggCJNoZZUdQmYJaIlpn+HkGiBscweiMfzkPCHSGMMWXtIvj/jvvYAb0lufkxfHPK7rC0/JiEDhm1xDISK+VySsXhTYAiJv6HEhuid/B10U74RYDWMwd2l2UvAG7I6TMc7WQXUnQ4ewph6+YFTP1uhZrcBRiDgVOXgV0fclLfyAt6b9iv+S8DoKEOWZuXhr+WOYVf+yyn/KQwBCR4QrnNn3Ibww8s1ORtKh+QGitezHQPBZyeMmCEWPkcLirehBN7szaWePJbwGY254DXz67727CNGntkwpNjVIddl2iAMZoRNmY6BOLmp8G0o3npRIxpWs/DqvUlA+HSP95x2SCuZiGsdA2EgfQfKitU0W8PKV97upfVcPtdUPCAKlSsNyV+QhspXKK2AKo82ebMdkbjKVw8zwY5akefhb03XQoKa360hZOZJukqvYvmm4iONL+EKDH6EmYddaSEpf2WFqIbJ776hoVFzGVRaZWZStzLqbJpOTmldZ76GUT/k8oV6S6EtzpgoKGiM5buMGlk6IpQ8BKjMLEABBZAGiZPHM6KJ7ssPWHxcEzyqXI2qbvd4e5buOTnxrN7yV969drAr1kuCPGjLj4kUsk7yetbXQCwm+QmyqySvUlARzeIYuVeZSlh4oBq3Kjc0pcmjd6rHs7qlCRoiHm/rNZrKs/VcnuQAIHBrLIqHOHnwJi+eSL4AFmdWYk/x0layrWmMTALGrhpjOPV7pdKEKMG8ewKkPCq1V+ydVI4cb9ezxaHNL+UIW4Oqsx73rH58+j8G8iKNRfK6x4d8NRa51tE0H7/yuFemOnWckcGHET/qHyUvScYyC+xKr09oS5Rg8qB6BTAEsrbh/qtQj0v3jPoVPW3SS74o5iyxDqjnzYDilAEsUAjrnoeqHr2swfJZWpBFnLyeaSx+6pHHcXgLUe3DKyI3G/Oc5zxnfMgUD3Fbi8i50SFOlbPW0gUNCBi9T0iVWzrQDg21uhXnamWtDKE1TM9Zn9AGho/QZga8nOIipDKEtv7hbFrpOyvHfeBz4Put3/qtI01Pf8d3fMfVsoB20hCg+OaUetRhMWxYSlMXmchKTs+UAY81jQnJGuxE+LOe9azxbRWLPvEYzTOMCgDlkBENkM+7KN9ZUIlne7Z6n7PoGeB609XBRwcH8KY9fhqsAQ4sCepSBxtmGD7ykY9cPfaxjx3PPFV2rZPrhgLXgmbRFPzd+/XaQx/60CEPEPADDiI7sKR7RXvUMRCMqZbGBEDp5U1zeMaE1EPU3cJTzzFkAKPCBMdHfr1DCxlnwshnGABROVogDeC0gRwaJt4iD8iGKW2igeqVHw+NJ08OmzOE3jLGDyhkJwuSVwd0RVs2BimgoF2tj/3Yj109+MEPHitrIATE5r1GqlTvEQ5IqSZgGDcNEgfwAE44fAAPBFdDLa3yTGgdJF5ZjVenXTfaQcusjOW1RQlA7aGRn/zJnzzsmo9uGIryVCdetM/vtb2mJav4NWAUKLNA6E5rij9EgNF7VNM4JTg+hgig4quRGt0MgcTrSUC6N3OxC8oCHk8yeI1iy1N5Uyuw5WeL6hwNZa/wtzikTXYgvXkAGD7aOitCs1RxO7c2FRQYJChSYxWqeAkgaaZ2nwFIYI2i8n7yAhAaYNgAjjAaR33NRIYaLVUfAHSKdQwjq37pDLOh6sUYQ48fg0429dJWM5I3p+pQJxupDF7sjQ4gK0DIZ7jpEMOTZpNra0kQKUg4foQ1RJ8wWCKsGoaQd8WH4IaQIE5jpCdYvUQL3GuMfOTR6/Wm/PgJm3UYThpYnLLye1bvrCHShe51islBPhql/jVgpttBKtN7ehSSCi5Rgrgm2ED/sjGeAaGe6qqR3Ufdlxc/ZQNVEIfklRaIrtIEZWlI5arPvatnI8NxVlpOAYZ9GpwnihnSg8Ch0hp1iJSVTwAi5DeFj78gX/GC+/KjmR9ZkAYheZE8yuJXx7kXpxwtQvLTXACJr43lbXJAA8CLhCs1SegqZ92NaUPJmD60talsvTb3LEESHnlG1VVQFsmrfGVKTz75gCBOx5kxxZcXf3LOZTzjiZRNPrIaSmY58eySEbKmMTEXkB5nKBk2TA6RypXpvqDC+BaHZrCQZ6F0pGEzeVZH+cjnSj5x5ekexU+e0ehLQNIw2shkmCSinRojKGwI5SyZEVxnoc+FuAXzP7fjWmxpTFeBivEj+jzRuZIO5/fwjJssdgJDWyRyz3mK5/6zHMsX+038IDYGrQETIF1ZdK40o2s8nuMwQpxCK3nLCvbG6NjyY4QAYPENIwaLjclYnRvxivNjvKI1C++casKKlbbOYGfyI86RzGz975O9NmbWGG6y90pe1bIxAbaPKl/YjLuTtK/O4pbIaLAK98Z1p41BGDUDKWApb4EFyUOUA1X5BBN/jIC3pdyN7vNwD9VtO8MGmXdovGO0BQxtwQhjRtf/BLEyZmcOkbLKxUPIC0XF3amAZnCqN097H3HujAr+DLuq3NZQmq+cO6eZIJm7vkS8zYBBCSQ+nneC8FaX2bTn6iNL8uwjRtc5Q4eOzMRbwERN1+2L2DRKxZYo4eYeCqw7CQxSrzoM27lzxAXYPrK12heHrhadFwWvJHYrxNROPPWCqIIV2kctzMxgpnYCUk1+wiHhbkvJrFPcC+pnGzV8yUaadW20a59dPgZ4JzAIY41imNgX4BzyYww3ggWK/V8bXSq+0z5Qq3r11w510gLvo133kc6f/ZixjXrB4AoYjUGhz7awMfYqbAkquETKJyAfyHser3jbGjjGTt2U1K0DaW0ra/WS2Yfg/ee/fWQ7VluV5+krswZMtiG1B4o9X/uy3rtYZAXaLsJKICTD/bjHPW74Pxwoe7l3cjiR3U4d8NXPJpqCDWv7v5//+Z9/mXObDHX2lIYZRoDd0hhB4zVC47xVtB/DK8xiL1HAcA4/93M/d+TnVfrBw6Gyt6GaoQ71s4+Pf/zjxz278YVf+IUjfRd5q+CHIDrQASIKsNWFAAkgPWDlae1wjIMXBYArgZU1bu90IKu9FPf2bdWdDEtke8VOgndKDfc1YIAxM2E0GU/vZs5520HHs0OGnBmMcqwBU0+PMXZxDwzvgoU7aThf2MREAIfG2bSiHGvADKQuAlAEdsVLdGgOS30J3LmRkdEv9TtVtWVj5uHENlgvAQVg50pGAzsjmMW2hlLGKs1grSHprApH71zJ618HpGyE7z0GQmMi8zv7knrNhvmcyMjgv3BCuSZoy8ag3Grro0/6pE8aB3jawDlHMjKe/OQnr5797GfvPgYCDOC4pj3Gn1nqnG2MdmrfPFrWWitByMbweh01s95xZOtcyZLn4Q9/+LAx1oVbxndETAEBiq2hQec6XbfobOIZGjRiLqmEAHCMy++eHY04tLK+m8lprGc+85njFKmJZgsYJJJ2IPbFKtXcXtw5Eo0xuVhEZkrWgGm4pDGQ9A9WnPrmxxwCp/TNfC9MUNV9qH4LTxtU/kmoNyNoC5hZY+xP2LwRAusYal8HHSPYbWnm3/0cp01LxEezsWaCqZ1bNgYFjrUSH8Y/jKNmx9AMbALhW/ydCMjVhKFT1OfZVVzt2kfeWfu8igMMNqxGucu0QTGrQmsHGz6G0SHUI/laoRKSYO0Bx/dOBXXM8lfnof1m8lpdz4cXtoBBIQwUJ6rtoAPpGFI2AauEEU/QOxXwN1Goj3sRSTNUlsh2g4/92L1r9l0DJrXL07Vu4Px00kHaIVI2gONDUCC3t3PqYNvADpw6DAuOqQ3uNCV59hFA46ETgbn4XskuO6PE+Fp1HlJJDCOC2YAWZyPIoZxDAt6GctLSEA2084jszH3O53zOuN9FXp/Y9KctfDbDavG9kh5wDMQcb0P70As3QilPSzhKX/3VXz0WaPeEH4S/jtP7bAZi4wwTH//j8u8jbolTY9rntPk4nXrB8EriplkNQ34X1C/1MR8FFoYTVgKA9Jjy9oxNg56PGYo3JRqjXnXoCOAAynce/NyGSUA1V77u59cnth5sQ+x8fZKt8SbRuyXDyPkRmnMsMPL1bqfnqaqTU52qcRravkpvDZKbLEgbM8peE/lOjbcitlqAswVMjctoGhJsjPE3kFwAJh8C4dUs4V4Ppol3gjQSKMk/d4R6axNZmiAC06EFmg0Q37AYQF5kuAKmjApjwuIbDsap00acvCVgsuhAIKie6McLCXUnSVOEGk4GMnuB1i9OUKC5ajNbChxy++9jRshOYJBCjsz7baHxyQM+9IpW+RrvUCP75EAOtQbanSTgA4IMNFuzyMLVcPbFx3bSePl0VACxSewgQHfaGLdCjYckG2EYGXuHlgUaT0Cesg10oLonCL6EuRNUE5K7qVu9Gumkg9dADLFngFWGTHwfH+8yK2VLd0paIYBQLVM1O3OIVAJ9mtYPwAhB4IS+E4S3egKe1lQneZxkYEOc5S0f8AR5+GqGEteE7yZu7Rdum8ib3y0HDAvvgg+Bozzr/p3f+Z1D2/QYwo8w8b9TpB51zkNFAJRJxD3Dmq2c22sI9WNU7VzTGBln4fW43u8042Z6z6kmY2uPmFM39wgh5148FJSj8oxhwbN4JA+ec+PdI3nk95xs7q31+reqXj0HIAJK53zdo51+TBV1DIRFt82pwhqLFHVvWtfwb/iGbxi/hdY7bI00qoyUS/h9hJ+6uOQ2pZUhvHjBWoY9UBdZ0Az4Jk1Nu2qXxn/Ih3zIWDACGxkZzjMDRfyW56swUplGaBStMatQP3GCIgnkGTB2+Qwh41W5ei21btbYR+pOMP8fgErXmAIDyVboLAQ4ecgjfYmkl8/pTP9amvtPLsPfDKp+B6QMtzUbo7EoBoaEX7iZWfQihDUSuSaMX6k+6UlPuvr5Tmn41LjuXXcFQJpW73e/+41fs+oIHWK80yKBFslngerFGPK8xFeQjsjBJOhInadNZiA8+Gp+reu6ZWNqaMPF3K53BIxKn0mcPRuaQohsAx6oqzSA7Qs0hGCI70M7HKXlYPrkHFU3jIDDr9o0oLt4FuQDDlk0Wlvw5opIw8v7a3x1AJ5bfsxMNMDsYn6nXtmN8tEwlX3RF33RWLoTQh6UpoiTP23cR/jMQZnKG4Luq5u/hJ/7Gr7kQKYxNJDhVRYIPofL8TNN87tojwXneOk2SkyUWiLotuVHWFQaym60vsAY4jSmIeDa86FA2/DP4JJF73p27xoAeAqAQbv4FXQs+4En7aCZ9rH9HEB5PJkLwVAbYF9kvmppyOoBxCjZIKbmviHTEQmI15uunjlI1L5GxKOe9VzcLgIAoAW9irdG4SXOsNbjwJaXncBPmuvUjC0KPHy1QWf7fQR7Ig0g7JaOkQ7INWA0CqUd5nznYzg+vsaMEaqBLQH4CHoCqxkE94EdzyWqtwhIFsE9Eg9kcQBLBnGHeJNBaIjilaxIO+oM4A/5LxKvgHGrIoSJBvNl3BtOs0DnRH7h5piZJZBjdTt/RRua9TSivsf0+N1KtJBC0Jz0ZOdQQjTDdOZFt6HUP0w5R41hY3jrlKK9mzWNkTAHWsPQMXwQPUdQkNEgsGe1e8vGCAFgCQ5JCNKWDOG5ERtjm8SM5PXJziPzgYOaGYQJv7MjWmJWpQC0xfOiH2OlzCNkpTuGtTScArWZLWpoosofA3TyVDYaqn7Bp7DEa7O+XfnNvu0IcFLNvluzkkoraNzJfJ0ZqZ8kewsocPq8/gRWvKtHXM/V2VWa7YA+BoaUMXNwJi1X5rJzOTTXVdr8LD1yDxy+TEDu/Mq8IAM32v6F1S4kAVTBXaScja1v+qZvGsPP/knvl/lB+CEGXdDItEmDlKlhrhanFrAWeNx/6bZBnvjEJ44lSId8Kku2ynMWkefaA4CuQh1urWTbwSLVy8XR1hmYCsbIbKTXCK5Rud/7iBCYK+NdsfWIqV7F4v2Yy9RoqSGO+raOohncA19Fw4chlA8RVjq33dVXzXSYpYpVvZeCtkjIr1HA83kl+cXTBvwAMQOiLQIeyihrQ4692QkMcrWlySMEkAbmLu+jgGHlvUjXaEIwahqt5wlsW8GQ6zOTgPHPreSxmgee5QeQ1GcokYWGaaRyGgEcn6M0tMygtIv3iofDzDrUvo14q+k0Vp34pgDqp4HaCEAKsOXHyKige0AoUOYlUFDlhVS7dQ8haIjGA9qUiDSe8EBl3J2DoyHKAJZmGZ42sZyTc2pCA+2+4eNlvFcjPkupfvwNI22w8FUmjSSPPFHtMawNd3KolyxrwJQxAgrGfoVKvQ4RjQNA6uo+Nxtv13bQAkdPshU2owllWACwcoRElc/W6Cw8yNVhA/zE6UR8DTUdo4PbSEuueCKAOORtiGbU1+fBS6oglTZGqSZBD1HCawzhAWDIGD6Epv6Cd1WOZXi5ZQtAOUPAXm/DTZ160ssyr4fZGzYjwABME9SjYYaYdCDQCuAKhpi8GeqZ8BFsM5hgDKVGxpaNQakbNe8YB6N0yMYgKtnRNA00vgHE5vCH3LNBhog0QhHaM1shHUgMtYaqz/BhV6z0/fzXcCGrTW2y2aZkg8gtr163NYqXNgBQJxiCye+qAwGjXWxadohW7ZyuFRL0mB7RIIVUEON9hKmGaTCjS819JbXXL0AQL58eYitojTSCunodbJdNXsOBzcFHb9IoWqcBetkzrTCkNJ5B5jcBBG9DjsaRX3lU+7oHJLCNEHWSYcvz9ShAnwoqJCNBjNdDwLwwKJl1os7ksXMyP/7jP3500gzELjJMrZUA7ku0OmLNxoRRFVFdO/TUVIX3dtKxOpF22uSmmcUvEfD6HMzY1gTkBQBXGtMMgCRy5/kD1NXbOwb03qwxAJhnQyCh4vcRW2Q4GiWGpCG3pjESNLwrg8Ro9j/c7o2gzERumq2DAWFoFb9EZi+OotEBIOUXp2uGiOFk/VPLeysBQccBZO7gtGmJ2FF2xixqllN2cdvBdMrrBFAHau6NVOOT2zBqBkKjoZdpu4gfZBYz9MxqZrIt4zsbKs6ZrQNTmXGIEmIO++KFpTThFOlIww0jcXMbAmSznFA8ILgInEmGWNyW8cW0MWlByLHKM3TVG9JT03pDOdd6y730TXVu/Cdw+VDGPwMqTYi34bJUN2Dm7VdxaOa/qUnSrKM6BmL5A5wt44sS0Czk3BpQOHcEILTgHrk2latkWPQLPqVrDLCiQJMuvzR53CsXKEge6Z6FQ3UDJdCQdmzWjea65eHYUQAAsTdoTWNQoKiAq+0UksWkj3TSGNkZ4ipVmdCzRkt3r8EJ614eDRMnHa+A8kzgpljPykmvEdepW5y0ue7yx8s9shfDV1OWEriuLQlkFpBKINjRLOQ7Tlap/BqnG77t275tNIbBsp/ijAymlhAA9a81qKfgnI0w1PRCWO+rrGa5+qZIPzG0hrIE4Fgqy7XXKdZRDiWZMarbv/ZA6jYMnvzkJw+XwvJC3V4tmyx0pn1rZ3iq2x6Tuo0IddsppClmX/Jo05bxBUj31isf+ZEfOc746mk7c4QGFMNM8J75Aqmi57Y19UYrX88aJ7BfAjX2bDWtjLzKyKsMwfGc6xbfs0nhUN1mnepWX3W5F1rsKqvdwFv0fKmcTAIhBL1v+sZExe4FQqkM4nqKZmmUXtGTynruVJT8ekZ+dWksUaSLl86uebZmw1vvVzcwpM11q4t86gYI3vvqri51K2tYcWili1sDxi2hUJqD3OsZY1VFgAKiMC8sCUN4lEFVoXR5AW2oiZcuvnHOiHrGjwzy01J1IfUT+qZ1iwP0rroj+cSrd8v49hgzhUfGSwEI6LlKo8pJJ/BcaWkaDBzpeESlq08e6QGCSqc5d6LuGRAk7xYw99H/oTXjex/9/3QfMHvoPmD20H3A7KH7gNlD9wGzh+4DZietVv8fZaVjH9EVEA0AAAAASUVORK5CYII=;" parent="1" vertex="1">
          <mxGeometry x="10" y="150" width="70" height="448" as="geometry" />
        </mxCell>
        <mxCell id="YZOmJjN1szqIvKfU1QNY-49" value="Document&#xa; Management" style="shape=image;verticalLabelPosition=bottom;verticalAlign=top;imageAspect=0;aspect=fixed;image=data:image/svg+xml,PHN2ZyB4bWxucz0iaHR0cDovL3d3dy53My5vcmcvMjAwMC9zdmciIGlkPSJkb2N1bWVudC1zZXJ2aWNlIiB2aWV3Qm94PSI0LjAwMDAwMTkwNzM0ODYzMyAzLjk5OTk5OTA0NjMyNTY4MzYgNDggNDcuOTk5OTk2MTg1MzAyNzM0IiB3aWR0aD0iNDgiIGhlaWdodD0iNDcuOTk5OTk2MTg1MzAyNzM0Ij48ZGVmcz48c3R5bGU+LmNscy0xe2ZpbGw6IzA3NGQ5Mjt9LmNscy0ye2ZpbGw6IzBhNmVkMTt9LmNscy0ze2ZpbGw6IzA1M2I3MDt9PC9zdHlsZT48L2RlZnM+PHRpdGxlPmRvY3VtZW50LXNlcnZpY2VfY2lyY2xlPC90aXRsZT48cGF0aCBjbGFzcz0iY2xzLTEiIGQ9Ik0yOCw2QTIyLDIyLDAsMSwxLDYsMjgsMjIuMDI1LDIyLjAyNSwwLDAsMSwyOCw2bTAtMkEyNCwyNCwwLDEsMCw1MiwyOCwyNCwyNCwwLDAsMCwyOCw0WiIvPjxwYXRoIGNsYXNzPSJjbHMtMiIgZD0iTTQwLjI1LDIzLjYyNWgtLjExN2wtMy4zODMtN0gxOS4yNWwtMy4zODMsN0gxNS43NUExLjcxOCwxLjcxOCwwLDAsMCwxNCwyNS4zNzV2MTIuMjVhMS43MTgsMS43MTgsMCwwLDAsMS43NSwxLjc1aDI0LjVBMS43MTgsMS43MTgsMCwwLDAsNDIsMzcuNjI1VjI1LjM3NUExLjcxOCwxLjcxOCwwLDAsMCw0MC4yNSwyMy42MjVabS0xLjg2Ny0uMDU4SDE3LjU1OGwyLjY4NC01LjZIMzUuNzU4TTE1Ljc1LDM3LjYyNVYyNS4zNzVoMjQuNXYxMi4yNVoiLz48cG9seWdvbiBjbGFzcz0iY2xzLTMiIHBvaW50cz0iMzEuNSAzNC4xMjUgMjQuNSAzNC4xMjUgMjQuNSAzMy4yNSAyMi43NSAzMy4yNSAyMi43NSAzNC4xMjUgMjIuNzUgMzUuODc1IDMzLjI1IDM1Ljg3NSAzMy4yNSAzNC4xMjUgMzMuMjUgMzMuMjUgMzEuNSAzMy4yNSAzMS41IDM0LjEyNSIvPjxyZWN0IGNsYXNzPSJjbHMtMyIgeD0iMTkuODkyIiB5PSIyMS4zNSIgd2lkdGg9IjE2LjIxNyIgaGVpZ2h0PSIwLjg3NSIvPjxyZWN0IGNsYXNzPSJjbHMtMyIgeD0iMjEiIHk9IjE5LjE5MiIgd2lkdGg9IjE0IiBoZWlnaHQ9IjAuODc1Ii8+PC9zdmc+" parent="1" vertex="1">
          <mxGeometry x="496" y="495" width="48" height="48" as="geometry" />
        </mxCell>
        <mxCell id="YZOmJjN1szqIvKfU1QNY-50" value="" style="endArrow=classic;html=1;rounded=0;entryX=0.5;entryY=0;entryDx=0;entryDy=0;" parent="1" edge="1">
          <mxGeometry width="50" height="50" relative="1" as="geometry">
            <mxPoint x="519" y="406" as="sourcePoint" />
            <mxPoint x="519" y="496" as="targetPoint" />
            <Array as="points">
              <mxPoint x="519" y="441" />
              <mxPoint x="519" y="451" />
            </Array>
          </mxGeometry>
        </mxCell>
        <mxCell id="WlcbldYSedxSLMsNR19L-2" value="" style="endArrow=classic;html=1;rounded=0;entryX=0.5;entryY=0;entryDx=0;entryDy=0;exitX=0.078;exitY=1.016;exitDx=0;exitDy=0;exitPerimeter=0;" parent="1" source="YZOmJjN1szqIvKfU1QNY-2" edge="1">
          <mxGeometry width="50" height="50" relative="1" as="geometry">
            <mxPoint x="390" y="340" as="sourcePoint" />
            <mxPoint x="374" y="495" as="targetPoint" />
          </mxGeometry>
        </mxCell>
        <mxCell id="MaRwexoo5PcD640tawHR-1" value="Azure" style="image;aspect=fixed;html=1;points=[];align=center;fontSize=12;image=img/lib/azure2/monitor/SAP_Azure_Monitor.svg;" parent="1" vertex="1">
          <mxGeometry x="76.25" y="402" width="53.75" height="43" as="geometry" />
        </mxCell>
        <mxCell id="MaRwexoo5PcD640tawHR-2" value="Destination&#xa;&amp;&#xa;Cloud Connector" style="shape=image;verticalLabelPosition=bottom;verticalAlign=top;imageAspect=0;aspect=fixed;image=data:image/svg+xml,PHN2ZyB4bWxucz0iaHR0cDovL3d3dy53My5vcmcvMjAwMC9zdmciIGlkPSJkZXN0aW5hdGlvbiIgdmlld0JveD0iNC4wMDAwMDE5MDczNDg2MzMgMy45OTk5OTkwNDYzMjU2ODM2IDQ4IDQ3Ljk5OTk5NjE4NTMwMjczNCIgd2lkdGg9IjQ4IiBoZWlnaHQ9IjQ3Ljk5OTk5NjE4NTMwMjczNCI+PGRlZnM+PHN0eWxlPi5jbHMtMXtmaWxsOiMwNzRkOTI7fS5jbHMtMntmaWxsOiMwNTNiNzA7fS5jbHMtM3tmaWxsOiMwYTZlZDE7fTwvc3R5bGU+PC9kZWZzPjx0aXRsZT5kZXN0aW5hdGlvbl9jaXJjbGU8L3RpdGxlPjxwYXRoIGNsYXNzPSJjbHMtMSIgZD0iTTI4LDZBMjIsMjIsMCwxLDEsNiwyOCwyMi4wMjUsMjIuMDI1LDAsMCwxLDI4LDZtMC0yQTI0LDI0LDAsMSwwLDUyLDI4LDI0LDI0LDAsMCwwLDI4LDRaIi8+PHBhdGggY2xhc3M9ImNscy0yIiBkPSJNMjMuNSw0MEgxOS4wNDdhMS41NCwxLjU0LDAsMCwxLTEuMS0uNDIyQTEuNDE5LDEuNDE5LDAsMCwxLDE3LjUsMzguNVYyMmw2LTZIMzRhMS40MjMsMS40MjMsMCwwLDEsMS4wNzguNDQ1QTEuNDg2LDEuNDg2LDAsMCwxLDM1LjUsMTcuNVYxOUgzNFYxNy41SDI1VjIyYTEuNDIxLDEuNDIxLDAsMCwxLS40NDUsMS4wNzhBMS40ODYsMS40ODYsMCwwLDEsMjMuNSwyMy41SDE5djE1aDQuNVoiLz48cGF0aCBjbGFzcz0iY2xzLTMiIGQ9Ik0yNy45NjksMzQuOTMyLDI2LjM1OCwzNC4xbC0xLjAxMi45MjlMMjQuMDU4LDMzLjc2bC44ODEtLjg4Mi0uNjgzLTEuNzYzTDIzLDMxLjFWMjkuMzEyaDEuMjM5bC43MzYtMS43NzUtLjkxNy0uOTIzLDEuMjY1LTEuMjg3Ljk1NS45NTYsMS42OTEtLjctLjAwNy0xLjM3NywxLjg4Mi4wMDl2MS4zNjhsMS42OS43LDEuMDA4LS44ODIsMS4yMTMsMS4zMzktLjg4Mi44ODIuNywxLjY5LDEuMzMzLjA5NHYuODQ0aDEuNXYtLjg0NGExLjU2MywxLjU2MywwLDAsMC0xLjU5My0xLjU5NEgzNC44bC4wNDEtLjAzOWExLjYzNCwxLjYzNCwwLDAsMCwuNDI5LTEuMTA5LDEuNTM2LDEuNTM2LDAsMCwwLS40NTctMS4xMUwzMy42LDI0LjM0MWExLjYzMiwxLjYzMiwwLDAsMC0yLjI0OCwwbC0uMDExLjAxMnYtLjAwOUExLjU2MSwxLjU2MSwwLDAsMCwyOS43NSwyMi43NUgyOC4wNjNhMS41NjEsMS41NjEsMCwwLDAtMS41OTQsMS41OTR2LjAwOWwtLjAxMi0uMDEyYTEuNjMsMS42MywwLDAsMC0yLjI0NywwTDIzLDI1LjU1NGExLjUzNiwxLjUzNiwwLDAsMC0uNDU3LDEuMTFBMS42NTYsMS42NTYsMCwwLDAsMjMsMjcuOGwuMDEyLjAxMUgyM2ExLjU2MywxLjU2MywwLDAsMC0xLjU5NCwxLjU5NHYxLjY4OGExLjU5LDEuNTksMCwwLDAsLjQ0MywxLjEwOUExLjU0MSwxLjU0MSwwLDAsMCwyMywzMi42ODhoLjAwOUwyMywzMi43YTEuNjEsMS42MSwwLDAsMCwwLDIuMjQ3bDEuMjEzLDEuMjEzYTEuNjIyLDEuNjIyLDAsMCwwLDIuMjU5LS4wMTJ2LjAwOWExLjU5LDEuNTksMCwwLDAsLjQ0MiwxLjEwOSwxLjU0NCwxLjU0NCwwLDAsMCwxLjE1Mi40ODVoLjg0M3YtMS41bC0uOTM3LS4wOTRaIi8+PHBhdGggY2xhc3M9ImNscy0zIiBkPSJNMjguOTA2LDI4Ljc1YTEuNDgsMS40OCwwLDAsMSwxLjI3Ljc1SDMxLjhhMi45OTQsMi45OTQsMCwxLDAtMy42NDQsMy42NDNWMzEuNTJhMS40ODEsMS40ODEsMCwwLDEtLjc1LTEuMjdBMS41LDEuNSwwLDAsMSwyOC45MDYsMjguNzVaIi8+PHBhdGggY2xhc3M9ImNscy0zIiBkPSJNMzUuOTM0LDM2LjYzOWwuMTMyLS4xMzJhMi4yNTYsMi4yNTYsMCwwLDAsMC0zLjE4M0wzNC4zOSwzMS42NDhhMi4yNTUsMi4yNTUsMCwwLDAtMy4xODIsMGwtLjEzMy4xMzJMMjkuNDkyLDMwLjJsLS44LjgsMS41ODMsMS41ODMtLjEzMi4xMzJhMi4yNTYsMi4yNTYsMCwwLDAsMCwzLjE4M2wxLjY3NiwxLjY3NmEyLjI1NiwyLjI1NiwwLDAsMCwzLjE4MywwbC4xMzItLjEzMkwzNy43LDQwbC44LS44Wk0zMS4zMjEsMzUuNmwtLjM0OS0uMzQ5YTEuMiwxLjIsMCwwLDEsMC0xLjY5bDEuMDg4LTEuMDg4YTEuMiwxLjIsMCwwLDEsMS42OSwwbC4zNDkuMzQ5Wm0zLjkyMS4wNTUtMS4wODgsMS4wODhhMS4yLDEuMiwwLDAsMS0xLjY5LDBsLS4zNDgtLjM0N0wzNC45LDMzLjYxNmwuMzQ3LjM0OEExLjIsMS4yLDAsMCwxLDM1LjI0MiwzNS42NTRaIi8+PC9zdmc+" parent="1" vertex="1">
          <mxGeometry x="562" y="312" width="48" height="48" as="geometry" />
        </mxCell>
        <mxCell id="MaRwexoo5PcD640tawHR-4" value="" style="endArrow=classic;html=1;rounded=0;" parent="1" source="MaRwexoo5PcD640tawHR-2" edge="1">
          <mxGeometry width="50" height="50" relative="1" as="geometry">
            <mxPoint x="390" y="330" as="sourcePoint" />
            <mxPoint x="550" y="340" as="targetPoint" />
          </mxGeometry>
        </mxCell>
        <mxCell id="HlYbjYmZChd8IBJPYQHm-22" value="" style="shape=mxgraph.sap.icon;labelPosition=center;verticalLabelPosition=bottom;align=center;verticalAlign=top;strokeWidth=1;strokeColor=#D5DADD;fillColor=#EDEFF0;gradientColor=#FCFCFC;gradientDirection=west;aspect=fixed;SAPIcon=Document_Information_Extraction" vertex="1" parent="1">
          <mxGeometry x="350" y="501" width="50" height="50" as="geometry" />
        </mxCell>
        <mxCell id="HlYbjYmZChd8IBJPYQHm-23" value="SuccessFactors" style="image;image=img/lib/sap/SAP_Logo.svg;editableCssRules=.*;verticalLabelPosition=middle;labelBackgroundColor=none;verticalAlign=middle;imageAspect=0;labelPosition=right;align=left;fontSize=16;fontStyle=1;spacingLeft=0;fontColor=#002A86;spacing=0;" vertex="1" parent="1">
          <mxGeometry x="687" y="317.5" width="30" height="15" as="geometry" />
        </mxCell>
      </root>
    </mxGraphModel>
  </diagram>
</mxfile>
